<svg xmlns="http://www.w3.org/2000/svg" width="1280" height="720" viewBox="0 0 1280 720">
  <metadata><?xpacket begin="﻿" id="W5M0MpCehiHzreSzNTczkc9d"?>
<x:xmpmeta xmlns:x="adobe:ns:meta/" x:xmptk="Adobe XMP Core 5.6-c140 79.160451, 2017/05/06-01:08:21        ">
   <rdf:RDF xmlns:rdf="http://www.w3.org/1999/02/22-rdf-syntax-ns#">
      <rdf:Description rdf:about=""/>
   </rdf:RDF>
</x:xmpmeta>
                                                                                                    
                                                                                                    
                                                                                                    
                                                                                                    
                                                                                                    
                                                                                                    
                                                                                                    
                                                                                                    
                                                                                                    
                                                                                                    
                                                                                                    
                                                                                                    
                                                                                                    
                                                                                                    
                                                                                                    
                                                                                                    
                                                                                                    
                                                                                                    
                                                                                                    
                                                                                                    
                           
<?xpacket end="w"?></metadata>
<defs>
    <style>
      .cls-1 {
        fill: #181818;
        fill-rule: evenodd;
      }
    </style>
  </defs>
  <path class="cls-1" d="M106.726,341.529q17.364,0,27.888-8.41t10.523-23.655A30.069,30.069,0,0,0,140.4,292.38a36.463,36.463,0,0,0-11.838-11.3,52.318,52.318,0,0,0-15.523-6.045,74.266,74.266,0,0,0-15.785-1.84,82.011,82.011,0,0,0-22.626,3.154,118.635,118.635,0,0,1,1.315-55.195,105.824,105.824,0,0,1,12.628-30.488,77.129,77.129,0,0,1,23.152-23.918q14.469-9.722,36.043-9.725,24.195,0,41.305,12.879t17.1,36.533a48.156,48.156,0,0,1-9.209,28.649q-9.207,12.888-27.624,12.879a26.555,26.555,0,0,1-18.679-7.622,25.116,25.116,0,0,1-8.156-19.187,85.384,85.384,0,0,1,.789-9.988,20.877,20.877,0,0,1,6.578-12.09q2.631-2.628,3.683-3.942a4.525,4.525,0,0,0,1.052-2.891c0-1.753-1.232-2.629-3.683-2.629a17.288,17.288,0,0,0-7.893,2.629,30.935,30.935,0,0,0-8.681,7.359,45.8,45.8,0,0,0-6.841,11.564,43.525,43.525,0,0,0,9.471,46,42.118,42.118,0,0,0,30.256,11.828,43.077,43.077,0,0,0,20.784-5.257,59.231,59.231,0,0,0,17.1-13.93A67.316,67.316,0,0,0,216.7,230.088a63,63,0,0,0,4.21-22.6q0-28.386-20-46t-54.723-17.61a101.53,101.53,0,0,0-44.461,9.462,109.557,109.557,0,0,0-55.775,60.452,112.586,112.586,0,0,0-7.63,40.476,104.338,104.338,0,0,0,6.314,37.848,110.815,110.815,0,0,0-31.044,39.162q-12.115,24.442-12.1,57.56,0,34.168,13.681,60.714A133.915,133.915,0,0,0,52,494.235a167.005,167.005,0,0,0,52.881,27.6,204.269,204.269,0,0,0,62.352,9.462q41.042,0,73.664-12.09a173.153,173.153,0,0,0,54.986-31.8,142.905,142.905,0,0,0,34.464-44.418,113.574,113.574,0,0,0,12.1-50.464,107.883,107.883,0,0,0-4.735-33.117,116.854,116.854,0,0,0-11.576-25.758,87.836,87.836,0,0,0-14.47-18.135,62.212,62.212,0,0,0-13.944-10.251,155.425,155.425,0,0,0,17.364-1.314,164.778,164.778,0,0,0,23.678-4.731,158.783,158.783,0,0,0,26.046-9.725,87.348,87.348,0,0,0,23.941-16.558,80.3,80.3,0,0,0,24.2-60.189,81.669,81.669,0,0,0-5.525-31.277,64.5,64.5,0,0,0-14.47-22.078,57.42,57.42,0,0,0-20.521-12.878,68.919,68.919,0,0,0-23.678-4.206,67.36,67.36,0,0,0-21.836,3.68,61.96,61.96,0,0,0-19.2,10.513,53.494,53.494,0,0,0-13.681,16.822,47.734,47.734,0,0,0-5.262,22.6,34.524,34.524,0,0,0,2.894,14.982,29.548,29.548,0,0,0,7.1,9.724,24.965,24.965,0,0,0,9.734,5.257,37.55,37.55,0,0,0,10.26,1.577,20.44,20.44,0,0,0,15.523-5.782,21.878,21.878,0,0,0,5.524-15.77q0-10.513-5.788-14.982a18.964,18.964,0,0,0-11.575-4.468,12.375,12.375,0,0,0-8.419,2.366,7.945,7.945,0,0,1-5.262,2.365q-3.158,0-3.157-5.256,0-12.617,11.313-21.816a43.188,43.188,0,0,1,28.15-9.2q21.048,0,32.1,13.142t11.05,33.642q0,23.139-12.1,36.534a75.055,75.055,0,0,1-29.2,19.975,143.688,143.688,0,0,1-35.254,8.674q-18.153,2.108-30.781,2.628a217.741,217.741,0,0,0-44.988,7.622,112.347,112.347,0,0,0-37.1,17.873,89.82,89.82,0,0,0-25.256,29.174,84.3,84.3,0,0,0-9.472,41,75.438,75.438,0,0,0,5.788,30.226,72.514,72.514,0,0,0,15.26,22.866,70.734,70.734,0,0,0,74.717,15.245A53.2,53.2,0,0,0,290.1,404.083a48.833,48.833,0,0,0,3.946-18.924,48.173,48.173,0,0,0-3.683-19.449,39.726,39.726,0,0,0-9.471-13.667,38.97,38.97,0,0,0-13.155-7.885A43.681,43.681,0,0,0,253,341.529,41.315,41.315,0,0,0,224.59,351.78a32.128,32.128,0,0,0-11.576,24.969q0,12.1,6.84,17.61a21.788,21.788,0,0,0,13.681,5.519,16.2,16.2,0,0,0,12.365-4.731,17.628,17.628,0,0,0,4.472-12.616q0-7.358-3.946-10.776a19.943,19.943,0,0,0-8.156-4.468,12.467,12.467,0,0,1-3.42-1.314,3.688,3.688,0,0,1-1.315-3.417q0-4.2,5.788-7.359a23.973,23.973,0,0,1,11.576-3.154q14.726,0,22.362,9.462a35.7,35.7,0,0,1,7.63,23.129,34.579,34.579,0,0,1-15.259,30.488,46.933,46.933,0,0,1-14.733,6.834,52.307,52.307,0,0,1-31.834-.789,46.655,46.655,0,0,1-16.575-9.2,53.015,53.015,0,0,1-12.365-15.77,48.927,48.927,0,0,1-5-23.129,67.785,67.785,0,0,1,5.524-28.386,55.63,55.63,0,0,1,15-19.975,64.631,64.631,0,0,1,21.574-11.827,80.978,80.978,0,0,1,25.256-3.943,69.459,69.459,0,0,1,26.572,5.52,81.2,81.2,0,0,1,24.467,15.769,77.612,77.612,0,0,1,17.89,25.5,84,84,0,0,1,6.84,34.694,91.6,91.6,0,0,1-8.155,36.271,100.968,100.968,0,0,1-25.52,34.694,137.915,137.915,0,0,1-44.462,26.02q-27.1,10.251-64.982,10.251a158.867,158.867,0,0,1-59.985-11.039,151.789,151.789,0,0,1-47.355-29.7,132.956,132.956,0,0,1-31.044-43.368,124.821,124.821,0,0,1-11.05-51.515,107.326,107.326,0,0,1,3.946-27.072A78.75,78.75,0,0,1,52.53,307.887a76,76,0,0,0,24.2,25.232,59.8,59.8,0,0,0,29.992,8.41h0Zm7.367-52.04a15.328,15.328,0,0,1,8.418,14.192A8.856,8.856,0,0,1,118.3,311.3a17.226,17.226,0,0,1-10,2.891,24.334,24.334,0,0,1-17.89-7.36,56.585,56.585,0,0,1-12.1-18.923,46.371,46.371,0,0,1,17.364-3.154A36.962,36.962,0,0,1,114.093,289.489Zm317.359,68.993a93.083,93.083,0,0,1,6.577-7.885,69.414,69.414,0,0,1,10.743-9.418,81.891,81.891,0,0,1,14.031-8.1,39.123,39.123,0,0,1,16.443-3.5q22.8,0,33.982,16.646t11.181,47.31v74.031q0,14.019-4.384,20.37t-15.786,6.352q-7.454,0-7.454,5.256a3.925,3.925,0,0,0,1.535,3.067q1.535,1.314,7.235,1.314,7.016,0,16.662-.657t22.363-.657q12.715,0,21.485.657t12.716,0.657q4.822,0,6.139-1.314a4.2,4.2,0,0,0,1.315-3.067,4.624,4.624,0,0,0-1.754-3.942q-1.754-1.314-7.892-1.314-10.086,0-14.032-7.228t-3.946-23V385.641q0-36.8-17.1-56.509T496.785,309.42a66.075,66.075,0,0,0-22.582,3.723,88.692,88.692,0,0,0-18.635,9.2,111.013,111.013,0,0,0-14.47,11.171q-6.138,5.694-9.646,9.637v-27.6q0-6.134-5.262-6.133a35.916,35.916,0,0,0-7.454,1.314l-43.41,14.894a5.343,5.343,0,0,0-3.508,4.818,4.247,4.247,0,0,0,1.973,3.286,48.042,48.042,0,0,0,7.235,4.161,40.005,40.005,0,0,1,11.62,7.447q4.6,4.382,4.6,14.456V462.3q0,17.084-4.385,24.531t-14.908,7.447q-8.769,0-8.77,4.818,0,4.381,8.331,4.381,6.578,0,16.443-.438T412.6,502.6q4.385,0,9.866.219t10.742,0.219q5.262,0,9.866.219t7.235,0.219a15,15,0,0,0,7.016-1.1,3.625,3.625,0,0,0,1.754-3.286,4.176,4.176,0,0,0-1.754-3.5,12.75,12.75,0,0,0-7.016-1.314q-11.4,0-15.127-6.79t-3.727-22.122V358.482h0ZM651.306,195.535a3.5,3.5,0,0,0-1.754-3.724,8.456,8.456,0,0,0-2.631-.657,37.08,37.08,0,0,0-6.577.876l-41.217,16.208a24.773,24.773,0,0,0-5.7,2.848,3.538,3.538,0,0,0-1.315,2.847q0,4.38,5.7,6.133a78.286,78.286,0,0,1,14.031,7.009q5.262,3.5,5.262,13.579V498.23a16.485,16.485,0,0,0,.877,6.571,3.99,3.99,0,0,0,3.946,1.752,3.73,3.73,0,0,0,3.07-1.971,31.088,31.088,0,0,0,2.411-4.381q1.089-2.4,2.193-4.38a3.233,3.233,0,0,1,2.85-1.972,19.243,19.243,0,0,1,5.042,1.315q3.727,1.314,9.866,3.066,5.7,1.314,19.293,4.6a144.221,144.221,0,0,0,33.325,3.285,111.421,111.421,0,0,0,33.982-5.695,96.362,96.362,0,0,0,32.667-18.179,97.337,97.337,0,0,0,24.555-31.978q9.646-19.494,9.646-47.529,0-24.969-7.673-42.491A83.407,83.407,0,0,0,773.2,331.55a78.506,78.506,0,0,0-27.624-16.427,94.242,94.242,0,0,0-30.694-5.256,88.353,88.353,0,0,0-37.051,7.885q-17.32,7.884-26.529,17.96V195.535h0Zm0,155.509a70.5,70.5,0,0,1,8.112-7.666,69.773,69.773,0,0,1,11.619-7.666,86.274,86.274,0,0,1,14.032-5.914,51.1,51.1,0,0,1,15.785-2.409,53.246,53.246,0,0,1,25.213,6.133,59.347,59.347,0,0,1,19.95,17.3,84.076,84.076,0,0,1,12.936,26.94,126.585,126.585,0,0,1,4.6,35.482,113.779,113.779,0,0,1-5.043,35.483,80.213,80.213,0,0,1-13.593,25.845,56.926,56.926,0,0,1-44.944,21.465q-23.677,0-36.175-13.58t-12.5-42.491V351.044h0ZM830.949,491.221a9.6,9.6,0,0,0,2.631,5.038,18.1,18.1,0,0,0,4.823,2.847,109.339,109.339,0,0,0,16.224,4.6,141.479,141.479,0,0,0,31.132,2.847,144.2,144.2,0,0,0,21.485-1.971,77.091,77.091,0,0,0,24.336-8.1,57.248,57.248,0,0,0,19.732-17.3q8.112-11.171,8.112-29.569a47.771,47.771,0,0,0-4.6-21.246,59.9,59.9,0,0,0-11.4-16.208,83.141,83.141,0,0,0-14.47-11.608,102.571,102.571,0,0,0-13.812-7.447l-31.132-14.018a70.3,70.3,0,0,1-19.732-12.265,24.655,24.655,0,0,1-8.331-19.275,23.883,23.883,0,0,1,3.07-12.265,25.185,25.185,0,0,1,8.112-8.542,37.42,37.42,0,0,1,10.742-4.819,42.271,42.271,0,0,1,10.962-1.533q35.957,0,51.3,38.987,3.071,7.008,6.578,7.009a3.235,3.235,0,0,0,3.069-1.533,6.515,6.515,0,0,0,.877-3.286L948.9,325.2q0-4.82-6.577-7.447a116.714,116.714,0,0,0-20.609-5.695,150.487,150.487,0,0,0-29.378-2.628,75.863,75.863,0,0,0-20.828,3.066,62,62,0,0,0-19.731,9.637,55.454,55.454,0,0,0-14.909,16.427A49.221,49.221,0,0,0,834.9,381.27a56.017,56.017,0,0,0,9.428,14.236,57.315,57.315,0,0,0,11.839,9.857,100.277,100.277,0,0,0,11.181,6.132l31.57,14.456a89.154,89.154,0,0,1,20.609,13.8q8.331,7.665,8.331,22.122,0,19.273-12.058,26.94a53.228,53.228,0,0,1-29.159,7.666A32.987,32.987,0,0,1,867.343,491a52.791,52.791,0,0,1-13.374-13.36,71.832,71.832,0,0,1-8.55-16.208q-3.071-8.324-4.824-14.456a37.316,37.316,0,0,0-1.973-4.162,3.544,3.544,0,0,0-3.288-1.971,3.873,3.873,0,0,0-4.385,4.381v46h0ZM1039.53,343.159a105.8,105.8,0,0,1,17.54-10.513,60.24,60.24,0,0,1,27.18-5.695,54.97,54.97,0,0,1,25.22,6.133,62.088,62.088,0,0,1,20.82,17.3,88.7,88.7,0,0,1,14.04,26.94,111.788,111.788,0,0,1,5.26,35.482,114.041,114.041,0,0,1-5.04,35.483,77.469,77.469,0,0,1-13.6,25.626,57.141,57.141,0,0,1-19.73,15.551,55.467,55.467,0,0,1-23.9,5.257q-22.35,0-35.07-15.989t-12.72-44.9V343.159h0ZM980.335,567.442a6.917,6.917,0,0,0-5.043,1.534,4.253,4.253,0,0,0-1.535,2.847q0,4.818,7.455,4.819t19.288-.438q11.85-.439,20.61-0.438,3.945,0,10.53.219,6.57,0.219,13.37.219t12.72,0.219q5.91,0.219,8.55.219a12.739,12.739,0,0,0,7.01-1.315,3.8,3.8,0,0,0,1.76-3.066,4.033,4.033,0,0,0-1.98-3.5c-1.31-.876-4.75-1.315-10.3-1.315q-12.72,0-17.98-4.161t-5.26-19.055V492.973a99.094,99.094,0,0,0,16.66,7.447,88.345,88.345,0,0,0,31.13,4.819,107.835,107.835,0,0,0,32.89-5.476,89.553,89.553,0,0,0,31.35-17.741,93.812,93.812,0,0,0,23.46-31.978q9.21-19.713,9.21-47.748a103.2,103.2,0,0,0-7.68-41.615,85.662,85.662,0,0,0-19.95-28.912,79.648,79.648,0,0,0-27.62-16.865,89.7,89.7,0,0,0-30.26-5.475,81.366,81.366,0,0,0-35.29,7.009,108.8,108.8,0,0,0-23.9,14.893v-15.77q0-6.132-5.7-6.132a36.824,36.824,0,0,0-7.02,1.314L983.4,329.579A5.347,5.347,0,0,0,979.9,334.4a3.942,3.942,0,0,0,2.631,3.5q2.631,1.314,8.331,3.5,8.331,3.066,11.182,7.228a21.341,21.341,0,0,1,2.85,12.046V543.35q0,15.332-3.29,19.712t-12.057,4.38h-9.208Zm281.5-209.827a24.957,24.957,0,0,0,7.45-18.4,26.046,26.046,0,0,0-44.28-17.96,24.485,24.485,0,0,0-7.46,17.96,24.961,24.961,0,0,0,7.46,18.4,25.53,25.53,0,0,0,18.85,7.447,24.506,24.506,0,0,0,17.97-7.447h0.01Zm-24.78,210.046q3.735-1.533,12.5-9.856,3.945-3.942,8.99-9.856a81.547,81.547,0,0,0,9.43-14.018,103.666,103.666,0,0,0,7.45-17.741,69.049,69.049,0,0,0,3.07-21.026,44.171,44.171,0,0,0-2.41-14.456,41.446,41.446,0,0,0-6.8-12.485,33.79,33.79,0,0,0-10.52-8.761,29.278,29.278,0,0,0-14.03-3.285,32.543,32.543,0,0,0-19.95,6.352q-8.55,6.351-8.55,18.617a23,23,0,0,0,5.7,15.989,19.074,19.074,0,0,0,14.91,6.352,15.38,15.38,0,0,0,5.92-.877,12.488,12.488,0,0,1,5.04-.876,6.477,6.477,0,0,1,5.48,2.629q1.965,2.628,1.97,10.075a35.7,35.7,0,0,1-7.89,22.122,183.365,183.365,0,0,1-15.79,18.179,61.532,61.532,0,0,0-4.16,4.6,7.328,7.328,0,0,0-1.97,4.6,6.179,6.179,0,0,0,1.09,3.724,5.43,5.43,0,0,0,4.61,1.533,16.906,16.906,0,0,0,5.91-1.534h0Z"/>
</svg>
