<?xml version="1.0" standalone="no"?>
<!DOCTYPE svg PUBLIC "-//W3C//DTD SVG 20010904//EN"
 "http://www.w3.org/TR/2001/REC-SVG-20010904/DTD/svg10.dtd">
<svg version="1.0" xmlns="http://www.w3.org/2000/svg"
 width="800.000000pt" height="800.000000pt" viewBox="0 0 800.000000 800.000000"
 preserveAspectRatio="xMidYMid meet">
<metadata>
Created by potrace 1.11, written by Peter Selinger 2001-2013
</metadata>
<g transform="translate(0.000000,800.000000) scale(0.100000,-0.100000)"
fill="#000000" stroke="none">
<path d="M6510 7650 c-25 -4 -64 -10 -88 -14 -68 -9 -247 -72 -335 -118 -199
-104 -357 -260 -452 -448 -23 -46 -88 -219 -84 -228 0 -1 -3 -33 -7 -70 -44
-390 134 -661 464 -708 81 -12 185 -7 237 11 54 19 141 76 165 109 63 85 83
148 85 260 4 158 -35 249 -134 318 -59 41 -98 55 -176 64 -65 7 -116 -7 -185
-51 -94 -61 -141 -41 -144 62 -3 69 25 179 61 240 99 170 314 304 546 339 38
6 205 5 262 -1 91 -9 216 -48 295 -90 56 -30 149 -112 198 -174 77 -98 148
-254 167 -366 3 -22 10 -62 15 -90 9 -54 6 -311 -4 -360 -4 -16 -11 -55 -17
-85 -41 -206 -149 -372 -351 -542 -264 -223 -684 -364 -1228 -413 -30 -3 -75
-7 -100 -10 -57 -6 -159 -13 -280 -20 -92 -5 -138 -9 -245 -21 -71 -7 -227
-32 -315 -49 -41 -8 -85 -17 -98 -20 -13 -2 -32 -7 -42 -10 -10 -3 -28 -8 -39
-10 -127 -24 -350 -100 -489 -166 -435 -205 -746 -526 -902 -931 -25 -64 -69
-227 -76 -283 -3 -22 -9 -57 -14 -78 -5 -22 -7 -132 -5 -245 2 -165 7 -226 23
-299 104 -457 379 -797 787 -970 239 -101 552 -126 810 -63 338 81 579 267
722 555 32 63 69 169 77 220 3 17 8 41 11 55 22 102 8 298 -31 420 -31 99 -53
145 -109 225 -146 207 -383 318 -663 309 -388 -11 -701 -295 -711 -644 -5
-198 70 -335 224 -410 238 -117 478 21 477 275 -1 39 -3 79 -5 91 -24 101
-100 168 -243 214 -48 15 -64 34 -64 78 0 48 27 88 85 126 137 91 345 97 508
16 34 -17 76 -43 92 -58 81 -74 150 -190 181 -307 26 -96 26 -314 0 -399 -78
-255 -286 -432 -592 -507 -126 -31 -324 -31 -449 0 -234 57 -409 168 -547 346
-159 205 -215 434 -184 752 51 528 412 905 976 1018 118 24 379 28 490 8 450
-82 852 -384 1057 -794 40 -81 107 -258 117 -312 2 -12 12 -60 21 -107 19 -94
28 -368 15 -460 -4 -30 -11 -75 -15 -100 -25 -174 -98 -384 -197 -565 -248
-453 -707 -817 -1288 -1020 -193 -67 -410 -119 -590 -140 -8 -1 -35 -5 -60 -8
-97 -14 -140 -17 -275 -24 -475 -22 -796 12 -1164 124 -626 189 -1178 594
-1509 1106 -173 267 -305 591 -357 877 -45 247 -51 455 -19 709 6 50 48 232
70 306 36 117 102 259 170 362 l55 85 48 -74 c104 -158 272 -322 421 -410 94
-55 266 -119 364 -134 21 -3 48 -8 60 -10 42 -8 234 -5 301 6 267 43 469 199
524 405 26 101 31 240 11 327 -41 179 -191 351 -382 437 -76 35 -180 67 -240
76 -23 3 -50 8 -58 10 -38 11 -115 16 -230 15 -124 -1 -141 -2 -222 -15 -76
-13 -82 -14 -126 -26 -26 -7 -47 -8 -52 -3 -10 10 -35 166 -45 279 -8 84 -8
313 -1 358 3 18 8 55 11 82 2 28 10 77 15 110 6 33 13 69 14 80 27 165 119
427 208 593 102 189 267 387 413 493 33 24 62 47 65 50 17 21 218 118 280 135
543 154 1137 -15 1383 -393 26 -40 47 -78 47 -86 0 -7 4 -17 9 -22 14 -14 57
-171 65 -235 10 -78 8 -228 -4 -286 -17 -88 -19 -97 -40 -158 -27 -82 -95
-204 -150 -269 -107 -129 -248 -193 -444 -204 -148 -8 -253 23 -356 105 -162
130 -212 271 -188 527 11 115 54 208 130 284 66 66 88 99 88 132 0 35 -34 52
-88 44 -203 -30 -404 -267 -461 -544 -17 -81 -15 -255 4 -341 61 -276 287
-507 570 -581 175 -46 387 -27 555 49 243 109 453 336 573 618 30 70 62 179
82 279 20 100 10 365 -18 485 -14 57 -20 77 -27 95 -4 11 -18 45 -30 76 -81
212 -280 428 -505 549 -118 64 -307 129 -420 145 -22 3 -45 8 -52 10 -57 19
-462 28 -593 13 -287 -34 -580 -142 -835 -308 -60 -40 -112 -75 -115 -79 -3
-3 -27 -24 -55 -46 -158 -124 -347 -340 -456 -520 -133 -219 -240 -505 -284
-758 -3 -15 -7 -39 -10 -54 -18 -105 -25 -386 -12 -523 8 -95 32 -234 52 -310
15 -55 29 -103 42 -137 l16 -43 -44 -37 c-24 -20 -89 -83 -144 -138 -346 -349
-559 -820 -611 -1350 -16 -153 -9 -574 11 -685 2 -14 9 -56 15 -95 87 -559
432 -1131 905 -1500 78 -61 300 -215 310 -215 3 0 22 -11 43 -23 194 -123 639
-303 845 -343 10 -2 27 -6 37 -9 20 -6 24 -7 125 -29 75 -16 107 -22 170 -31
22 -4 47 -8 55 -10 8 -2 38 -7 65 -10 28 -3 66 -8 85 -10 162 -20 582 -27 785
-12 88 7 284 29 355 41 14 3 41 7 60 10 36 6 47 8 135 26 28 6 59 12 71 14
105 20 390 110 549 174 106 42 251 112 375 180 69 38 325 205 374 244 197 157
309 262 432 403 309 355 534 831 580 1225 2 25 9 77 13 115 9 73 6 360 -4 430
-37 264 -91 442 -199 670 -143 300 -351 547 -572 680 l-58 35 45 1 c123 3 229
15 474 55 189 30 464 117 685 216 74 34 147 69 162 79 14 11 29 19 32 19 3 0
22 11 43 25 21 14 47 31 57 38 86 56 262 215 318 289 13 16 32 42 44 56 160
204 276 502 300 769 45 493 -84 915 -365 1193 -162 161 -347 257 -587 306 -88
17 -334 26 -404 14z"/>
</g>
</svg>
