<?xml version="1.0" standalone="no"?>
<!DOCTYPE svg PUBLIC "-//W3C//DTD SVG 20010904//EN"
 "http://www.w3.org/TR/2001/REC-SVG-20010904/DTD/svg10.dtd">
<svg version="1.0" xmlns="http://www.w3.org/2000/svg"
 width="800.000000pt" height="800.000000pt" viewBox="0 0 800.000000 800.000000"
 preserveAspectRatio="xMidYMid meet">
<metadata>
Created by potrace 1.11, written by Peter Selinger 2001-2013
</metadata>
<g transform="translate(0.000000,800.000000) scale(0.100000,-0.100000)"
fill="#000000" stroke="none">
<path d="M6529 7666 c-2 -2 -25 -6 -50 -9 -25 -3 -77 -13 -115 -22 -228 -56
-408 -155 -561 -310 -181 -185 -273 -401 -275 -650 -1 -202 50 -341 169 -459
97 -96 231 -146 400 -147 190 -2 324 95 374 272 21 73 19 205 -6 282 -37 119
-143 197 -290 213 -65 7 -116 -7 -185 -51 -30 -19 -67 -35 -81 -35 -33 0 -59
23 -60 53 -1 12 -2 36 -4 52 -1 17 4 58 11 92 42 204 245 389 505 460 69 19
311 25 401 10 279 -46 486 -228 583 -514 32 -94 47 -190 50 -318 5 -206 -19
-349 -82 -500 -77 -183 -263 -373 -498 -508 -155 -89 -427 -181 -655 -223 -14
-2 -47 -9 -75 -14 -27 -5 -75 -12 -105 -15 -30 -3 -73 -8 -95 -11 -126 -14
-121 -13 -310 -29 -33 -3 -98 -8 -145 -10 -101 -5 -202 -13 -250 -20 -19 -3
-55 -7 -80 -10 -25 -3 -70 -10 -100 -15 -30 -5 -68 -12 -85 -14 -52 -9 -88
-17 -150 -31 -33 -8 -71 -16 -85 -19 -68 -12 -288 -80 -389 -121 -524 -210
-906 -609 -1045 -1089 -13 -45 -27 -99 -30 -120 -4 -21 -8 -41 -10 -45 -19
-30 -28 -381 -14 -516 47 -441 334 -858 718 -1042 134 -65 151 -71 256 -97
139 -35 219 -44 369 -41 195 4 350 40 523 121 232 109 418 314 511 564 82 222
73 490 -24 701 -47 102 -69 133 -162 225 -128 126 -319 203 -513 206 -151 3
-270 -22 -385 -79 -182 -92 -326 -258 -361 -418 -36 -160 -25 -296 31 -405 26
-50 100 -116 166 -148 175 -85 353 -46 436 95 50 86 61 203 29 301 -26 76
-106 141 -217 175 -65 20 -85 47 -76 101 8 48 32 79 95 117 73 44 160 66 254
64 187 -6 325 -75 417 -210 91 -135 122 -250 117 -440 -3 -131 -14 -181 -63
-285 -63 -137 -216 -271 -391 -344 -125 -52 -225 -70 -387 -69 -164 1 -228 13
-380 72 -272 105 -489 363 -561 666 -10 45 -14 390 -4 428 5 17 11 46 13 62 8
49 18 85 44 165 131 392 455 652 928 746 95 19 336 26 420 13 33 -5 74 -11 90
-14 82 -12 235 -65 343 -119 167 -82 282 -165 417 -301 80 -80 109 -117 193
-241 44 -66 109 -200 140 -289 44 -127 60 -194 82 -337 9 -65 7 -383 -4 -428
-3 -13 -8 -40 -11 -60 -17 -112 -61 -267 -104 -365 -163 -367 -363 -618 -676
-846 -290 -210 -647 -372 -1002 -453 -59 -14 -121 -27 -138 -29 -242 -39 -265
-42 -445 -53 -209 -13 -671 -6 -699 10 -3 2 -28 7 -56 10 -27 4 -61 8 -75 11
-14 3 -40 7 -59 10 -19 3 -37 8 -40 10 -4 2 -26 6 -50 10 -57 8 -250 65 -371
108 -136 49 -229 90 -356 157 -422 222 -766 528 -1006 895 -206 316 -354 717
-384 1045 -3 41 -8 78 -11 82 -5 10 -5 316 1 348 3 14 7 48 11 75 11 91 16
119 37 205 31 133 83 281 133 376 48 93 116 204 125 204 4 0 34 -40 67 -88
106 -153 308 -338 443 -407 397 -201 884 -159 1105 97 141 164 168 439 65 654
-36 76 -140 189 -224 243 -242 158 -622 207 -969 125 -37 -9 -69 -15 -71 -13
-2 2 -6 25 -9 52 -3 26 -8 51 -11 55 -2 4 -7 41 -11 82 -4 41 -9 89 -11 105
-5 40 -5 299 1 350 2 22 7 65 10 95 3 30 17 109 30 175 98 488 312 858 639
1102 115 85 277 162 401 189 214 47 487 46 680 -2 318 -80 576 -272 680 -509
51 -113 67 -200 70 -360 3 -131 0 -162 -21 -244 -66 -264 -220 -454 -424 -526
-84 -30 -246 -42 -335 -26 -124 23 -256 110 -333 223 -70 102 -92 248 -66 430
16 107 53 183 126 257 91 92 107 131 69 165 -21 19 -70 16 -142 -9 -113 -40
-243 -171 -318 -322 -59 -119 -83 -223 -83 -363 0 -108 6 -149 33 -235 42
-136 99 -229 204 -330 108 -104 240 -175 381 -206 83 -17 248 -19 332 -3 222
42 450 193 607 402 125 166 219 388 243 572 14 109 6 379 -13 433 -3 7 -6 23
-9 37 -2 14 -14 54 -26 90 -126 374 -440 648 -865 754 -55 14 -125 28 -155 32
-30 3 -82 10 -115 14 -67 9 -441 5 -495 -5 -19 -3 -60 -10 -90 -16 -166 -30
-362 -95 -513 -170 -76 -38 -205 -116 -233 -141 -11 -10 -24 -18 -28 -18 -13
0 -149 -113 -235 -195 -287 -274 -485 -619 -585 -1020 -28 -112 -31 -129 -41
-211 -4 -33 -10 -68 -12 -79 -11 -48 -10 -387 2 -480 16 -128 47 -269 80 -369
l26 -79 -43 -35 c-215 -179 -424 -454 -548 -718 -159 -339 -221 -663 -214
-1109 2 -132 6 -253 8 -270 2 -16 7 -50 10 -75 3 -25 10 -67 16 -95 5 -27 12
-66 15 -85 10 -61 65 -251 102 -350 76 -207 237 -486 385 -667 67 -83 235
-257 323 -334 86 -75 308 -234 400 -285 11 -6 58 -33 105 -59 354 -199 886
-361 1310 -400 36 -4 103 -10 150 -14 85 -8 580 -5 655 3 98 12 144 17 200 21
33 3 67 8 75 10 8 2 35 7 60 10 75 10 249 45 350 71 616 160 1162 471 1561
889 221 232 374 465 530 810 26 58 101 312 114 385 90 519 28 958 -197 1388
-64 123 -64 123 -133 221 -76 110 -74 108 -175 211 -97 99 -151 144 -235 194
-37 23 -52 36 -39 37 74 2 237 15 294 24 14 2 61 9 105 15 44 6 121 21 170 32
50 11 97 21 105 23 51 10 242 70 335 105 406 151 678 351 880 650 122 181 202
384 240 605 24 148 24 434 0 568 -79 427 -280 728 -605 905 -85 46 -217 92
-335 117 -72 16 -365 32 -376 21z"/>
</g>
</svg>
