<svg xmlns="http://www.w3.org/2000/svg" fill="currentColor" viewBox="0 0 384 102"><path d="M383.7 8.9c-.5-3-1.5-6-4.2-7.4-1-.5-2.1-.8-3.2-.8-7 0-14.8 10.7-20.7 23.7 1.3 5 1.3 10.2.1 15.2-2.4 7.9-5.7 15.3-10 22.2 0 5 1.1 8.6 3.7 9.6 1.3.5 2.6.8 4 .8 17.9 0 32.8-47.5 30.3-63.3"/><path d="m345.2 60.7.5-.9c3.8-6.4 6.8-13.3 9-20.4 1-4.4 1.1-9 .1-13.5 0-.3-.1-.5-.2-.8s-.1-.5-.2-.7c-3.9-14.3-18.2-23.3-32.2-23.3-11.1-.2-21.3 6.1-26.1 16.1-.3 3.3-.9 6.6-1.9 9.8-.4 1.3-.9 2.5-1.4 3.7 0 1.9.5 3.8 1.2 5.5 2.7 5.9 2.9 12.6.6 18.7-.9 2.2-1.7 4.5-2.5 6.8 3 1 5.5 2.9 7.2 5.5 3.3 5 2.9 11.1-1 16.8-2.1 3.1-4.6 5.9-7.4 8.4 2.4 5.6 6.1 8 10.6 8 12.6 0 31.2-18.8 43.1-38.9l.5-.8ZM332.5 59c-.3.6-.6 1.2-1 1.8-.3.7-.7 1.3-1.1 1.9l.5-.8c-3.3 5-8.3 8.7-14.1 10.3-1.1.3-2.3-.4-2.7-1.5-.6-1.9-.1-4.2.4-6.3l3.8-14.7c.6-2.2 1.3-4.7 4.3-5.1 1 0 2 0 2.9.5 2.9 1.1 5.2 3.4 6.4 6.2 1.2 2.9 1.2 6.1 0 8.9l.7-1.3Z"/><path d="M297.7 83.4c3.7-5.3 4-11 1-15.6-1.5-2.4-3.9-4.2-6.6-5.1h-.5c0-.1-.5-.2-.5-.2-.9-.2-1.8-.2-2.6 0-2.5.5-4.1 2.4-4.7 5.5-2.1 13.4-8.5 15.8-10.5 16.2-2.7.6-5.5-.5-7-2.9-2.2-3.4-2.4-10.1 3.7-18.6 2.1-2.9 4.4-5.8 6.6-8.6 5.8-7.3 11.7-14.8 15.4-23.5.2-.4.3-.8.5-1.2s.4-1.1.6-1.6l.3-.9c.6-2.1 1.1-4.2 1.5-6.4.1-.6.2-1.3.3-2 0-.5.1-.9.1-1.4.4-4.4 0-9.3-2.5-12.7-2-2.9-5.1-4.4-9.3-4.4-.3 0-13.8.2-23.3 20.9 1 4.1 1.6 8.3 1.9 12.6.2 14.5-3.3 28.9-10 41.7-1 1.9-2.1 3.7-3.2 5.5 1.2 10.3 6.2 17.1 14.2 19.3 8.4 2.3 18.5-1 26.8-8l.4-.3.4-.4c2.7-2.4 5-5 7.1-8Z"/><path d="M261.1 33.5c-.2-3.7-.7-7.5-1.5-11.1 0-.3-.1-.5-.2-.8s-.1-.5-.2-.8C255.7 7.7 248.1.7 238.9.7s-15.2 4.2-23.1 12.9c-1.6 2-3.2 4.2-4.6 6.4-.3 9.6-5 21.9-12.1 27.2-.6 2.2-1.2 4.5-1.7 6.8 6.8 3.2 11.3 9.8 11.9 17.3.5 7.2-1.2 16.7-5 23.3 3.8 3.6 8.8 5.7 14 5.8 1.4 0 2.8-.1 4.1-.4 10.3-2.2 18.9-9.6 25.3-19.4l.4-.7.4-.7c8.3-13.8 12.6-29.5 12.4-45.6Zm-21.9 40.6c-1.8 6.2-6.7 9.2-11 9.2S218 78.5 221.1 69c3.2-7.5 7.4-10.5 11.1-10.5 5.5 0 9.6 6.7 7 15.6"/><path d="M208.3 71.4c-.5-7-4.8-13.3-11.1-16.3l-.5-.2-.5-.2-.4-.2c-6-2.2-13 6.7-18.7 13.8-4.1 5.2-7.4 9.4-9.9 9.1-.9-.2-1.7-.8-2-1.6v-.2c-2.8-16.7 2.3-39.8 17.1-49.8.3-.3.7-.4 1-.2.7.4.6 1.6.4 5-.4 5-1 12.5 2.2 15.8 3.7 2.9 7.5 3.2 11.3.9.4-.2.7-.5 1.1-.7.2-.2.4-.3.7-.5s.5-.4.7-.6c5.5-5 9.8-15 10.5-23.8v-2c0-1.6-.1-3.1-.4-4.6-1.1-6.8-4.4-11.4-9.7-13.5-8.7-3.5-21 .5-28 6.1-14.3 11.4-27 31.5-30.4 53.8 1.7-1.7 4-2.7 6.4-2.8 3.1 0 5.9 1.8 7.3 4.7 2.7 5.3 1.1 12.8-4.2 20-2.2 3.1-4.7 5.9-7.6 8.4 1.8 4.4 4.7 7.3 8.6 8.7 6.2 2.2 14.7 0 21.8-5.6 4.4-3.7 8.5-7.9 12-12.4l1.4-1.8-.5 2.2c0 .1-2.8 12.3 1.6 17 1.4 1.5 3.5 2.1 6.1 1.7 3.4-.4 6.2-3 8.4-6.6l.3-.4c0-.2.2-.3.2-.4 3.6-6.4 5.3-15.7 4.8-22.5Zm-93.2-48.6c-1.9 5.9-5 11.3-9 16-2.4 7.7-3.8 15.6-4.4 23.6l-.4 10.9c1.1-1 2.1-2.1 3.1-3.1 6.4-6.5 12-12.1 18-8.3l.4.3 2.4-2.9c8.2-9.8 16.8-19.9 20.9-32.1 2-6.6 2.4-16.2-1.4-22-1.9-2.9-5-4.8-8.5-5h-.3c-2 0-12.9.7-20.3 14.1.2 1.6.2 3.2.2 4.8 0 1.3-.2 2.5-.6 3.7Z"/><path d="M150.4 82.6c5.2-6.9 6.7-14 4.2-19-1.1-2.5-3.6-4.1-6.4-4.1-2.6.2-5 1.4-6.7 3.5-.2.2-.4.4-.5.6s-.4.5-.6.8q-1.2 1.65-2.1 3.6c-4.7 12.1-12.1 17.7-17.3 18-1.6.1-3.2-.4-4.4-1.5-3.4 3.6-7.1 7-11.2 9.9.5.7 1.1 1.4 1.7 2 3 3.1 7 4.7 11.9 4.7 9.8 0 17.9-5 23.5-9.8l.4-.4.4-.4c2.7-2.4 5.1-5 7.2-7.9ZM116 83.7c.1-.1.2-.2.3-.4l.4-.4c1.6-1.7 3.2-3.5 4.8-5.5 0 0 4.5-5.1 3.9-9.8-.2-1.6-1.1-3.1-2.3-4.1-.1-.1-.3-.2-.4-.3-.1 0-.3-.2-.4-.3l-.3-.2c-5.3-3.4-10.6 2-16.8 8.2-1.3 1.3-2.6 2.6-3.9 3.8l-.5.5-.5.5c-1.2 1.1-2.4 2.2-3.7 3.2-1.3 1.2-2.9 2-4.7 2.4-5.2 1.2-7.7-.8-8.9-2.7-2.9-4.7-1-13.3 2.7-18l.6-.9.6-.9c2.8-3.6 6.2-7.1 9.4-10.5s6.2-6.5 9-10c.3-.4.6-.7.9-1.1l1-1.3c3.1-4 5.5-8.6 7.1-13.4.3-1.1.5-2.2.6-3.4v-4.9c0-.6-.2-1.3-.3-1.9-.7-3.6-3-8.1-6.6-9.9-2.6-1.3-5.4-1.9-8.3-1.9-4.6 0-9 1.5-12.6 4.3-3 2.5-5.7 5.5-7.8 8.8 1.9 5.8 2.5 13.9.6 25 0 .3 0 .6-.1.8-1.9 12.1-7.1 23.9-13.8 34 1 9.3 3.6 17.1 7.8 22.4 1.3 1.7 3.1 3.1 5.1 3.9.2 0 9.7 5.2 25.5-5.7l.4-.3.4-.3c4-2.9 7.7-6.2 11.1-9.8Z"/><path d="M78.3 14.7c0-.2-.1-.4-.2-.6l-.2-.6C76 8.1 72.5 3.6 66.5 1.2c-17.8-7-49.1 19.1-61.4 44.7C2.4 51.6.7 57.8.1 64.2c-.7 9.6 1.6 19.2 6.5 27.5 1.4 2.5 3.8 6.1 7.3 8 3.3 1.8 7.4 1.7 9.9-.3-1.3-1.4-2.4-3.1-3-5-1.6-4.3-1.5-9.1 0-12.5 1-2 2.5-3.7 4.5-4.7-.3-1.3-.6-2.4-.9-3.4-1-4.1-1.5-5.8-1-8.8.4-2.9 1.6-5.6 3.4-7.9 4.1-5 11.5-6.8 16.8-6.5 3.4.2 5.9 1.4 7 3.1s1.2 5-3.1 11.2c-4.4 6.2-10.4 8.6-15.5 10.5-2.2.8-4.3 1.7-6.3 2.8-1.7 1-3 2.4-3.8 4.1-1.5 3.2-1.5 7.7 0 11.7.6 1.7 1.5 3.3 2.8 4.7.6.7 1.4 1.2 2.2 1.6 2.9 1.3 7.4.5 12.6-2.3 8.5-4.6 17.9-13.6 25.4-24.8.2-.2.3-.5.5-.7s.3-.4.4-.7c6.3-9.7 11.1-21 12.9-32.6 0-.2 0-.5.1-.8 1.3-7.6 1.8-16.4-.4-23.7ZM59.4 42c-5.5 2.3-11.2.9-12.9-3.1s1.4-9 6.9-11.3 11.2-.9 12.9 3.1-1.4 9.1-6.9 11.3m295.1 50.1h.2zm-6.2-1.4.8.2zm8.6-1.1c-.3-.2-.7-.5-1-.8.4.3.7.5 1 .8m-17-2.3c-.5-.2-1-.5-1.4-.8-.9-.5-1.7-1-2.5-1.6-.4-.2-.7-.5-1-.7.3.2.5.4.9.6.8.6 1.7 1.1 2.7 1.7.5.3.9.5 1.4.7Zm-2.8-5.7h.2zm-2.7 5.8c-.6 1.9-.8 3.9-.4 5.9 0 .3.1.7.2 1 .3.9.7 1.8 1.1 2.7 1.2 2.4 3.6 4.1 6.3 4.3 2.2.1 4.5-.5 6.3-1.7l.9-.6c1.8-1.3 3.3-3 4.3-5-6.6-1-12.9-3.3-18.7-6.7Zm6.3 4.9c1.4.6 2.9 1.1 4.4 1.6-.4.7-.8 1.4-1.3 2-1.3-.3-2.4-.7-3.4-1.2 0-.8.2-1.6.3-2.4M337 96c-.2-.5-.5-1-.6-1.5-.2-.4-.3-.8-.4-1.2.8.5 1.6 1 2.3 1.4 0 1.1 0 2.2.1 3.2-.6-.5-1.1-1.2-1.5-1.9Zm1.5-2.4c-.9-.5-1.7-1.1-2.7-1.7v-2l3 1.5c-.2.7-.3 1.5-.4 2.2Zm2.2 5.3c-.2-1.1-.3-2.2-.3-3.2.9.4 1.8.7 2.8 1-.7.8-1.5 1.6-2.4 2.3Zm6.4-1.1c-.3.2-.6.4-1 .5q-1.35.75-2.7.9c.7-.6 1.3-1.3 1.9-2.1.7.1 1.4.2 2.2.3-.1 0-.3.2-.4.3Zm2.6-2.3c-.3.4-.7.7-1.1 1.1-1-.1-1.9-.2-2.7-.4.4-.6.8-1.2 1.1-1.9 1 .3 2.1.5 3.1.7-.1.2-.3.3-.4.5"/><path d="M355 87.7c0 .6.2 1.2.1 1.8v.7c.5.3.9.7 1.3 1.1h-2.5c.1-.6.2-1.2.2-1.7 0-.7 0-1.4-.2-2.2v-.3c-1.6-5-4.7-7.2-8-7.4-2.7-.2-5.4.7-7.5 2.4-.3.2-.5.4-.8.6-.7.6-1.3 1.4-1.9 2.1-.2-.1-.3-.2-.5-.3l-.3-.2c-.4-.3-.8-.6-1.2-1h2c.2-.2.3-.4.5-.6.4-.5.9-.9 1.4-1.3-.4 0-.9-.1-1.3-.2h-1.9c-1.7 0-2.8.4-3.1 1.2-.4 1 1 2.6 3.5 4.2 5.9 3.5 12.2 5.8 19 6.7h.3c.6 0 1.3.1 1.9 0 1.7 0 2.8-.4 3.1-1.2.4-1.1-1.2-2.7-3.9-4.5Zm-3.2-.4v.1h-.6c-.7-.1-1.4-.3-2.1-.4 0-1.4 0-2.9-.2-4.3 1.3 1 2.3 2.5 2.9 4.6m-11.5-.1c-.7-.3-1.4-.7-2.1-1-.3-.1-.5-.3-.8-.4.5-.7 1.1-1.4 1.7-1.9l.2-.2c.7.5 1.4 1 2.1 1.4l-1.2 2.1Zm-.1-4.1c1.3-.9 2.9-1.5 4.5-1.6-1 .8-1.8 1.8-2.6 2.8-.6-.4-1.3-.8-1.9-1.2m6.5 6.6c-.8-.2-1.5-.5-2.2-.7-.8-.3-1.4-.5-2.1-.9.3-.7.7-1.3 1.1-1.9q1.5.75 3 1.2c.3 0 .5.2.8.2 0 .7-.2 1.4-.4 2.1Zm.4-3.2c-.2 0-.4-.1-.5-.2-.9-.3-1.8-.7-2.7-1.1.8-1.1 1.8-2 2.9-2.9.3 1.4.4 2.8.4 4.1ZM352 91c-.3 0-.7-.1-1-.2l-2.4-.6c.2-.7.3-1.4.4-2.2.7.1 1.4.3 2.1.3h1v2.5Z"/></svg>