<svg xmlns="http://www.w3.org/2000/svg" fill="currentColor" viewBox="0 0 3100 823"><path d="m1367.7 19.34-5.1 70.755H1229v62.071h117.9v70.26H1229v64.143h135.2v70.656h-215.4V19.341zM644.098 246.999h-382.7v113.286h382.7zm0 221.934h-382.7v113.384h382.7z"/><path d="M14.398 25.36v780.173h346V692.148h-231.1V138.745h231.1V25.36zm524.3 0v113.385h237.6v553.403h-237.6v113.385h352.4V25.36zM1412.4 187.296c0-105.786 37.6-175.948 142.8-175.948 105.7 0 142.7 70.162 142.7 175.948v1.48c0 73.715-17.8 129.371-64 157.396l51.8 59.604-69.6 35.13-50.3-76.181c-3.1.493-7.1.493-10.7.493-105.1 0-142.8-70.162-142.8-176.442v-1.48zm84.3.987c0 69.669 15.2 105.292 58.4 105.292s58.9-35.623 58.9-105.292c0-69.176-15.8-105.293-58.9-105.293s-58.4 36.117-58.4 105.293m336.8-169.436V224.4c0 46.183 9.6 69.175 50.8 69.175 41.7 0 50.8-22.992 50.8-69.175V18.847h80.3v209.5c0 89.208-31.5 136.871-131.1 136.871s-131-47.663-131-136.871v-209.5zm402.9.494c27.4 70.655 75.2 216.605 108.7 337.884h-81.8l-14.7-64.143h-104.1l-14.8 64.143h-81.3c31.5-121.279 80.3-267.228 108.2-337.884zm-41.2 92.76c-12.7 37.598-22.8 74.208-32.5 110.227h67.6c-10.7-36.118-20.3-72.728-32.5-110.227zm274.3-92.76v267.228h135.1v70.656h-215.4V19.341zM1367.7 468.34l-5.1 70.655H1229v62.169h117.9v70.163H1229v64.241h135.2v70.656h-215.4V468.34zm126.5 0c14.8 29.604 36.6 71.247 54.8 102.825h1.5c18.8-30.097 41.1-73.221 55.4-102.825h90.4c-23.8 48.156-61.4 111.805-96 167.955l103.2 169.929h-96l-55.9-102.727h-1.5l-56.9 102.727h-94.5l101.1-170.423c-32-53.583-72.1-125.818-95.5-167.461zm341.4 0c30 0 60 1.973 82.8 9.572 38.1 13.519 63 50.623 63 102.825 0 76.676-49.3 114.766-132.1 114.766H1827v110.721h-80.3V468.34zm-8.6 156.409h15.7c34.6 0 54.4-4.046 54.4-44.11 0-15.098-5.6-28.124-14.7-34.144s-21.3-7.5-38.6-7.5H1827zm425.6-156.409-5.1 70.655h-133.6v62.169h117.9v70.163h-117.9v64.241h135.2v70.656h-215.4V468.34zm145.8 0c30 0 60 1.973 82.8 9.572 38.1 13.519 63 50.623 63 102.727 0 46.676-18.3 79.241-51.3 97.201l61.9 128.384h-83.3l-49.3-111.313c-5.6.494-13.2.494-20.3.494h-12.2v110.819h-80.3V468.34zm-8.6 157.889h15.7c34.6 0 54.4-5.526 54.4-45.59 0-15.098-5.6-29.111-14.7-35.131-9.2-6.019-20.4-7.5-38.7-7.5h-16.7zm435.8-157.889-5.1 70.655h-81.8v267.229h-80.2V538.995h-83.9V468.34zm240.3 84.175c-24.4-12.533-52.8-20.033-78.8-20.033-12.2 0-22.8 1.481-29.4 5.033-10.7 4.539-14.8 12.533-14.8 22.006 0 18.059 18.3 28.617 43.2 38.584l28.5 11.052c50.8 20.033 74.7 47.071 74.7 96.215 0 78.155-57.9 108.746-127.5 108.746-30.5 0-66.6-6.513-95-15.986l3.6-76.182c24.9 12.039 61 20.526 83.8 20.526 36.6 0 50.8-9.079 50.8-29.605 0-19.539-13.2-28.025-42.2-39.571l-28.4-11.052c-41.2-16.085-75.7-44.604-75.7-100.753 0-55.657 41.2-101.346 124.5-101.346 33.5 0 67.6 9.079 87.4 17.072z"/></svg>