<svg xmlns="http://www.w3.org/2000/svg" fill="currentColor" viewBox="0 0 569.2 181.4"><path d="M529.6 140.6c-16.2.2-28.9-10.7-33.1-26.7v26.8c-16 .1-28.9-10.6-33.1-26.7l-.3 26.7c-17.4 0-33.1-14-33.2-32.4v-67c16.5.1 28.6 11.1 32.9 26.4l.2-26.5c16.1.2 28.8 10.9 32.8 26.5l.4-26.3c18.1.1 33.2 14.5 33.2 33.1v66.1Zm-136.7-33.5 26.3.4c0 18.4-15 33.2-33.3 33.1-18.2 0-33.2-14.7-33.2-33.4V74.3c0-17.8 14.3-32.8 32.5-32.9h34c0 16.7-11.6 29.1-27.2 32.8l27.2.3c0 16-10.9 28.5-26.3 32.6m-121.1 33.3c-16 .7-29.1-11-33-26.6l-.3 26.8c-18-.3-33.1-14.4-33.1-32.5V41.3c16.2.2 28.5 10.7 32.9 26.3l.3-26.3c18 .2 32.5 14 33.2 32zm46.4-33.4 26.5.5c.2 18.2-14.8 32.9-32.8 33.1-18.4.2-33.6-14.5-33.6-33.4V72.3c1.3-17.4 15.5-30.9 33.1-31h33.4c-.2 16.5-11.2 28.7-26.7 32.9l26.6.3c0 15.9-11 28.9-26.5 32.5"/><ellipse cx="552.6" cy="124.1" rx="16.6" ry="16.5"/><path d="m95.8 0 6 .7c47.1 5.3 81.4 45.7 80.5 92-1 45.9-36.7 84.7-83.4 88.4C45.6 185.4 1.1 144.6 0 92.8S33 6.4 79.9.7l6-.7zm28.6 140.5-.3-67.9c0-18-16.1-31.4-33-31.4l-.5 25.6C86.2 51.7 74 41.3 57.8 41.1l.2 68.2c0 17.9 15.9 31 33.1 31.3l.2-25.7c4.9 15.5 17.2 25.5 33 25.7Z"/></svg>