<svg xmlns="http://www.w3.org/2000/svg" fill="currentColor" viewBox="0 0 584 162"><path d="M109.549 83.126h15.365q.67 1.341.672 5.027v8.267q.001 2.57 1.125 4.134c.747 1.045 1.758 1.563 3.026 1.563 1.343 0 2.392-.503 3.139-1.51s1.125-2.33 1.125-3.969v-1.675c0-2.751-.823-5.622-2.468-8.598s-4.038-6.516-7.177-10.612l-3.253-4.246c-3.962-5.14-6.747-9.62-8.354-13.46q-2.413-5.75-2.415-12.896c0-6.479 1.834-11.725 5.494-15.753q5.502-6.028 14.92-6.027c6.279 0 11.275 2.067 14.747 6.2 3.479 4.134 5.215 9.77 5.215 16.917 0 2.901.226 5.066.671 6.479v1.12h-15.139q-.67-1.895-.671-5.029v-7.485c0-1.713-.378-3.036-1.125-3.968s-1.721-1.398-2.913-1.398c-1.275 0-2.317.489-3.14 1.45q-1.235 1.453-1.237 4.134v1.676q.002 3.799 1.962 7.373 1.958 3.571 6.453 9.16l3.366 4.247q6.171 7.824 9.026 14.182 2.862 6.369 2.86 14.181-.002 10.28-5.381 16.309c-3.585 4.02-8.453 6.034-14.581 6.034-6.807 0-11.946-2.104-15.426-6.313-3.479-4.208-5.214-10.258-5.214-18.15 0-2.825-.227-4.914-.672-6.252v-1.12zm59.447-58.636 9.531 44.68h1.125l-1.683-44.68h15.705v89.351h-14.581l-9.531-44.679h-1.125l1.683 44.679h-15.705v-89.35zm28.482 41.32c0-14.888 1.947-25.687 5.833-32.391q5.83-10.056 17.162-10.055t17.162 10.055c3.886 6.704 5.833 17.496 5.833 32.391v6.704c0 14.895-1.947 25.688-5.833 32.391q-5.83 10.056-17.162 10.056t-17.162-10.056c-3.886-6.703-5.833-17.496-5.833-32.391zM215.99 95.3q-.002 2.686 1.23 4.187 1.237 1.51 3.253 1.51c1.343 0 2.43-.503 3.253-1.51.822-1.007 1.23-2.398 1.23-4.186V42.468c0-1.79-.415-3.187-1.23-4.187q-1.237-1.51-3.253-1.51c-1.343 0-2.43.503-3.253 1.51-.822 1.008-1.23 2.398-1.23 4.187zm65.832-70.81v14.52h-11.215v74.831h-16.822v-74.83H242.57V24.49h39.259zm19.177 0c4.71 0 9.049.88 13.011 2.624 3.962 1.75 7.125 4.336 9.479 7.763q3.532 5.14 3.532 12.513.002 14.856-13.456 20.66v1.12q6.055 2.12 10.037 7.147 3.985 5.026 3.985 13.738c0 5.14-1.102 9.492-3.305 13.069s-5.2 6.253-8.974 8.042-7.984 2.683-12.618 2.683h-17.72V24.491h16.037zm.793 37.976h1.124c2.015 0 3.645-.744 4.876-2.232 1.237-1.488 1.849-3.72 1.849-6.704v-6.703c0-2.977-.619-5.209-1.849-6.704-1.231-1.488-2.861-2.232-4.876-2.232h-1.124zm0 37.968h1.124c2.091 0 3.834-.782 5.215-2.345s2.076-3.946 2.076-7.147v-5.584c0-3.202-.695-5.584-2.076-7.147s-3.124-2.345-5.215-2.345h-1.124v24.575zm45.529-75.944c4.785 0 9.049 1.083 12.784 3.24 3.736 2.164 6.695 5.268 8.861 9.327 2.165 4.058 3.252 8.92 3.252 14.572 0 5.358-.77 9.815-2.302 13.347-1.532 3.54-3.947 6.907-7.237 10.108l8.415 37.637v1.12H354.83l-6.392-33.511h-1.683l.785 33.511h-16.822v-89.35zm.226 43.56h.559c2.09 0 3.834-.782 5.215-2.345q2.073-2.343 2.075-6.59v-12.29c0-2.826-.694-5.028-2.075-6.591s-3.125-2.345-5.215-2.345h-.559zm44.641-43.561v89.351h-16.822V24.49zm9.698 8.937Q407.771 23.37 419.1 23.37c6.657 0 11.758 2.443 15.313 7.312 3.547 4.878 5.328 11.56 5.328 20.051 0 2.608.189 4.652.558 6.14v1.12h-16.822c-.377-1.262-.558-2.938-.558-5.027V41.91c0-1.638-.34-2.9-1.011-3.795q-1.01-1.34-3.027-1.338c-1.343 0-2.407.504-3.2 1.511-.792 1.007-1.177 2.397-1.177 4.186v52.833q0 2.685 1.177 4.186c.785 1.007 1.849 1.511 3.2 1.511s2.355-.466 3.027-1.398c.671-.932 1.011-2.18 1.011-3.743V84.81c0-2.082.189-3.757.558-5.028h16.822v1.12c-.377 1.338-.558 3.578-.558 6.704 0 8.485-1.774 15.173-5.328 20.051s-8.656 7.312-15.313 7.312q-11.33 0-17.214-10.055c-3.925-6.704-5.887-17.496-5.887-32.391v-6.704c0-14.888 1.962-25.688 5.887-32.391m58.383-8.938-.785 29.822h1.125l7.517-29.821h15.705v1.12L473.733 68.05v1.12l10.656 43.559v1.12h-16.263l-7.517-30.377h-1.125l.785 30.377h-16.822V24.491z"/><path d="M482.812 83.126h15.365c.445.894.672 2.57.672 5.028v8.267c0 1.713.377 3.088 1.124 4.133s1.759 1.563 3.027 1.563q2.016 0 3.139-1.51c.747-1.007 1.125-2.33 1.125-3.969v-1.675c0-2.751-.823-5.622-2.468-8.598q-2.469-4.466-7.177-10.612l-3.253-4.246c-3.962-5.14-6.747-9.62-8.355-13.46-1.607-3.833-2.415-8.132-2.415-12.896 0-6.479 1.834-11.724 5.495-15.753 3.66-4.02 8.633-6.034 14.92-6.034 6.286 0 11.275 2.066 14.746 6.2 3.48 4.133 5.215 9.77 5.215 16.917 0 2.9.227 5.065.672 6.478v1.12h-15.139c-.445-1.263-.672-2.939-.672-5.028v-7.485q-.002-2.57-1.124-3.968c-.747-.932-1.721-1.398-2.913-1.398-1.276 0-2.317.488-3.14 1.45-.822.97-1.238 2.345-1.238 4.134v1.676q.002 3.799 1.963 7.372c1.305 2.383 3.456 5.434 6.452 9.161l3.366 4.247q6.171 7.823 9.026 14.181 2.863 6.37 2.861 14.182c0 6.854-1.797 12.287-5.381 16.308s-8.453 6.035-14.581 6.035q-10.209 0-15.426-6.313t-5.215-18.15c0-2.825-.226-4.915-.671-6.252v-1.12zm100.94 6.898V48.308c0-13.776-11.215-24.944-25.049-24.944-13.835 0-25.05 11.168-25.05 24.944v41.716c0 13.776 11.215 24.945 25.05 24.945 13.834 0 25.049-11.169 25.049-24.945"/><path d="M559.088 100.894c-.85-.713-1.495-1.489-1.936-2.061-.409.305-.747.54-1.054.744-1.055.745-2.92 1.246-4.509 1.152-1.22-.101-2.983-.47-4.101-1.622-.952-1.01-1.495-2.194-1.495-4.052 0-1.418.205-3.142.205-4.592 0-.54-.071-1.152-.071-1.489-.031-.172.102-.306.275-.337h.748l1.731-.102 2.377.032c.134 0 .275.133.275.274.032.235.071.611.071 1.215 0 1.622-.236 1.99-.236 3.48 0 .877.205 1.347 1.015 1.347.811 0 1.732-.51 3.699-2.194a63 63 0 0 0 2.644-2.5l-1.054-.643c-1.763-1.081-2.613-2.43-2.849-3.683-.134-.745 0-1.755 0-2.226.031-.204.173-.305.338-.305l1.456-.032 1.322-.07 1.834.031c.205.031.338.172.338.337-.031.337 0 .878.307 1.418.205.306.984.847 1.999 1.49.779-.643 1.795-1.215 2.881-1.654 1.29-.47 3.084-.878 3.997-1.05.307-.07.575.133.575.47v1.215l.071 1.724v2.265c0 .235-.173.439-.37.47-.472.102-1.015.204-1.629.439-.032.031-.071.102-.032.133.268.368.41.611.646.98 1.936 2.907 1.967 5.368 1.251 7.633-.708 2.265-3.659 3.612-5.564 3.612-1.904 0-3.494-.47-5.155-1.857zm3.156-6.857c-.645.203-1.157.909-1.251 1.489-.102.47-.205.744.134 1.246.613.909 1.424.877 2.132.776.716-.134 1.291-.776 1.22-1.756s-.236-1.316-.645-1.622l-.339-.204c-.543-.172-.81-.07-1.251.07m7.02-19.38c-1.189 2.532-3.085 4.123-5.761 4.828-1.291.337-2.644.51-4.171.51a25 25 0 0 1-3.014-.204c-2.133-.236-3.935-.847-5.564-1.826-2.676-1.623-4.242-3.746-4.745-6.348-.103-.51-.103-1.082-.134-1.623 0-1.347.134-2.766.134-2.766 0-.51.134-1.113.338-1.622.339-1.011 1.055-1.99 1.692-2.633l.339-.235c1.054-.878 2.478-1.724 3.801-1.991 1.149-.235 1.629-.368 2.479-.439.708-.07.747 0 .81.611.134 1.286.173 2.602.205 3.88l.031.337v.775c0 .071-.071.173-.134.173-.306.07-.952.235-1.424.368-.441.134-.716.369-.952.541-.543.368-.779 1.215-.779 1.99 0 .338.071.674.134.98.409 1.552 1.526 2.328 2.337 2.767 1.22.642 2.274.744 3.321.877.614.032.952.032 1.322.032.913 0 1.629-.032 2.573-.408 1.055-.368 1.393-.909 1.732-1.889.102-.235.133-.572.133-.909 0-.846-.275-1.826-1.015-2.327-.574-.408-.952-.643-1.456-.847l-.81-.368c-.37-.204-.472-.266-.472-.878 0-.235.031-.54.031-1.01 0-.745.032-1.113.071-1.858 0-.642.031-1.285.031-1.928.032-.47.103-.642.174-.713.031-.031.173-.07.574.031.716.173 1.424.337 2.133.612l.747.305c.811.369 1.425.706 2.031 1.113 2.337 1.654 3.628 3.684 3.935 6.215.102.705.133 1.348.133 1.959 0 1.45-.275 2.735-.81 3.918m-.04-20.054c-1.086 2.124-2.919 3.378-5.902 4.083-1.054.275-2.203.369-3.289.51-.37.031-1.936.031-2.338.07-3.218-.07-4.745-.572-6.949-1.489-.747-.305-1.692-.878-2.337-1.489-1.527-1.489-2.337-2.633-2.542-4.522a17 17 0 0 1-.134-2.092c0-.776.071-1.622.276-2.265.645-2.367 1.66-2.837 3.156-4.052.645-.54 1.597-.948 2.88-1.246 1.117-.235 2.203-.438 3.699-.509.983-.031 1.967 0 2.951.172.511.071 1.015.173 1.558.235 1.66.204 3.321.745 4.919 1.52.267.173.574.306.881.44.811.337 1.322.642 2.133 1.387 1.629 1.418 2.203 3.174 2.101 4.96-.102 1.725-.441 3.104-1.055 4.287zm-8.066-1.081c.677-.173 1.22-.611 1.59-1.246.236-.44.338-.948.338-1.45 0-.267 0-.51-.071-.745-.236-1.05-1.086-1.857-2.101-2.123a13 13 0 0 0-1.692-.408c-.614-.102-1.22-.172-1.834-.133h-.173a7.9 7.9 0 0 0-3.628.643c-.881.368-1.393 1.183-1.29 2.06.173 1.584 1.054 2.665 2.51 3.175 1.157.407 2.337.61 3.526.61.952 0 1.865-.132 2.817-.368zm2.235-15.227c.071-2.093 1.393-3.44 3.218-3.347 2.275 0 3.117 1.011 3.424 2.5a5.3 5.3 0 0 1 .102 1.082c-.071 1.959-1.22 2.868-3.36 2.837-2.101 0-3.455-1.285-3.392-3.072zM87.742 28.6a30.3 30.3 0 0 0-3.142-4.469v-2.374L61.11 8.385c-1.987-4-8.343-6.927-15.888-6.927-8.237 0-15.05 3.487-16.318 8.046L7.248 21.763l38.563 22.566 19.114-11.122.012.024-19.02 11.098v48.656c0 2.922 3.173 4.743 5.696 3.273l29.761-17.365a6.49 6.49 0 0 0 3.22-5.606V51.363l3.005-1.731c5.082-2.934 5.147-12.349.137-21.025z" style="fill:var(--surface)"/><path d="m16.42 44.15-9.897 5.714-.018.018c-5.082 2.933-5.148 12.348-.137 21.024s13.194 13.33 18.276 10.391c.024-.012.047-.036.071-.048l9.837-5.677c5.082-2.934 5.148-12.348.137-21.025s-13.193-13.33-18.275-10.39z" style="fill:var(--surface)"/><path d="M88.85 50.9c2.933-1.69 4.558-5.113 4.588-9.624.03-4.23-1.363-8.992-3.916-13.407a32 32 0 0 0-2.946-4.267v-1.845q0-.197-.053-.375a1.48 1.48 0 0 0-.685-.887L62.718 7.332C60.279 3.023 53.692 0 45.729 0 37.046 0 30 3.583 28.178 8.522L7.226 20.382q-.144.044-.28.113a1.47 1.47 0 0 0-.737 1.28v26.518l-.542.315a1.5 1.5 0 0 0-.244.173c-2.78 1.737-4.332 5.076-4.362 9.468-.03 4.23 1.363 8.992 3.916 13.407.386.673.803 1.322 1.232 1.958v2.541c0 .578-.024 1.131-.066 1.696-.256 3.315-1.196 14.485-2.696 19.032-.268.815-.553 1.63-.833 2.446-1.035 2.975-2.107 6.052-2.481 9.301-.548 4.791.63 9.2 3.225 12.105l.202.22c2.643 2.797 6.832 3.856 10.682 2.69 3.416-1.036 5.803-3.66 6.374-7.029.506-2.945-.244-5.832-1.13-8.51a69 69 0 0 0-.387-1.154c-.828-2.44-1.613-4.743-1.536-7.13.03-.874.238-1.618.613-2.195.518-.792 1.155-1.16 1.904-1.137 1.036.036 2.232.84 2.839 1.91.964 1.708 1.047 3.91 1.018 5.642-.203 10.301-1.381 19.442-2.625 29.112-.41 3.202-.821 6.41-1.202 9.671l-.03.256c-.511 4.409-1.083 9.402 1.322 13.812 1.19 2.178 3.035 3.791 5.189 4.558.952.34 1.892.506 2.815.506a7.3 7.3 0 0 0 3.683-.988c2.345-1.339 4.095-3.945 4.678-6.968.648-3.351-.024-6.731-.613-9.712-1.904-9.611-3.505-18.484-3.85-29.821-.024-.768.166-1.47.53-1.976.559-.767 1.255-1.166 1.886-1.047.678.119 1.243.827 1.553 1.94.262.946.03 2.249-.197 3.505-.142.786-.291 1.601-.333 2.398-.267 4.898 1.506 8.106 4.868 8.796 1.922.399 3.946-.179 5.279-1.512 2.916-2.904 1.737-7.486.958-10.515-.649-2.517-.922-5.892.232-7.802.47-.779 1.16-1.261 2.1-1.482.846-.19 1.62.042 2.12.649 1.564 1.91 1.178 5.35.862 8.117l-.071.643c-.16 1.482-.405 2.999-.637 4.469-.238 1.494-.482 3.035-.655 4.577-.66 6.04.179 10.646 2.565 14.092a10.12 10.12 0 0 0 6.85 4.231c2.654.387 5.249-.322 7.308-1.976 5.546-4.463 4.451-11.372 3.57-16.925l-.166-1.071c-.464-3.017-1.137-6.022-1.791-8.932-.84-3.756-1.714-7.636-2.113-11.492a26 26 0 0 0-.09-.768c-.202-1.719-.511-4.326.584-5.23.607-.506 1.238-.667 1.916-.494.97.25 1.922 1.172 2.369 2.303.28.708.476 1.422.666 2.106.595 2.143 1.214 4.356 4.094 5.838 3.089 1.595 6.97 1.214 9.427-.928 2.809-2.44 3.987-6.618 2.922-10.397-2.833-10.027-2.952-22.667-3.006-28.737q-.006-1.064-.023-1.833l-.31-11.575v-1.22l2.268-1.309zm-1.875-21.567c2.291 3.975 3.54 8.206 3.517 11.92-.024 3.427-1.13 5.945-3.118 7.093l-.792.458v-20.09c.131.208.268.41.393.625zm-3.339 24.101v19.847a5.04 5.04 0 0 1-2.487 4.338L51.388 94.984c-.595.352-1.28.393-1.91.179a2.6 2.6 0 0 1-.405-.167 2.6 2.6 0 0 1-.488-.369 2.3 2.3 0 0 1-.536-.88 2.3 2.3 0 0 1-.137-.756V45.18l35.73-20.847V53.44zm-66.603-8.01a5.3 5.3 0 0 1 .815-.375c.089-.03.19-.047.28-.077a5 5 0 0 1 .6-.149c.108-.018.22-.024.328-.035.202-.024.404-.048.613-.048.113 0 .226.012.339.012.214.006.434.018.66.047.108.012.22.042.334.06.232.041.47.083.708.149.107.03.214.065.327.095.25.071.5.155.75.244.101.036.202.083.304.125q.4.16.803.357c.083.041.16.083.244.125.297.155.595.315.893.494q.08.046.16.101c2.78 1.714 5.57 4.564 7.755 8.153.113.19.238.375.345.565 2.255 3.91 3.433 8.046 3.505 11.51.018.868-.03 1.69-.155 2.457-.357 2.31-1.339 4.112-2.952 5.04l-4.344 2.512c.31-1.172.488-2.452.5-3.85.03-4.231-1.363-8.992-3.916-13.408-3.564-6.177-8.563-10.349-13.247-11.604l4.339-2.506zm30.457-20.12a6.4 6.4 0 0 0-1.125-3.255c6.106-.125 11.349-2.018 14.437-4.904v5.374c0 4.392-6.903 8.1-15.074 8.1-.154 0-.303-.013-.458-.013a6.47 6.47 0 0 0 2.226-5.302zM45.728 2.928c6.892 0 12.86 2.642 14.569 6.1q-.001.002.005.012c.316.636.5 1.303.5 1.981 0 4.392-6.903 8.1-15.074 8.1-7.504 0-13.92-3.13-14.919-7.04l-.143-1.113c0-.351.066-.703.155-1.042l.018-.065c1.089-3.862 7.456-6.933 14.89-6.933m-18.02 9.23v10.367c0 6.195 7.916 11.045 18.02 11.045 10.105 0 18.02-4.85 18.02-11.045v-11.23l18.407 10.48L46.323 42.62l-.047-.03-35.564-20.81zM4.007 58.248c.023-3.427 1.13-5.944 3.118-7.093.803-.464 1.714-.684 2.696-.684 4.279 0 9.896 4.171 13.568 10.533 2.291 3.975 3.541 8.206 3.517 11.92-.024 3.386-1.107 5.88-3.053 7.046l-.047.03s-.024.017-.036.03q-.303.167-.625.291c-.047.018-.09.048-.137.06-1.892.684-4.308.267-6.909-1.209q-.002.001-.012-.005a16 16 0 0 1-1.083-.679c-.06-.041-.119-.077-.184-.125-.268-.184-.53-.387-.792-.589-.137-.107-.274-.202-.41-.315-.054-.042-.102-.09-.155-.131-1.607-1.34-3.166-3.035-4.57-5.047l-.012-.012c-.47-.678-.929-1.38-1.357-2.112-2.291-3.976-3.541-8.207-3.517-11.92z"/><path d="m55.019 55.291 2.29 1.41-2.374 4.166a1.477 1.477 0 0 0 1.274 2.208c.512 0 1.012-.268 1.28-.744l2.326-4.082 2.226 1.368c.238.15.506.22.768.22a1.475 1.475 0 0 0 .773-2.73L61.28 55.69l2.333-4.089a1.477 1.477 0 0 0-.547-2.011 1.48 1.48 0 0 0-2.012.547l-2.285 4.005-2.208-1.356a1.48 1.48 0 0 0-2.03.482c-.428.69-.208 1.6.483 2.029zm14.525 8.034h-.006l-13.896 8.022a1.477 1.477 0 0 0-.541 2.011 1.48 1.48 0 0 0 2.017.542l1.054-.607c-.018.041-.042.083-.06.119l-.167.327c-.315.649-.666 1.518-.547 2.511.16 1.351 1.232 2.423 2.493 2.482 1.131.06 2.226-.72 2.637-1.88.321-.905.172-1.798.035-2.387-.035-.166-.083-.333-.125-.5-.083-.31-.16-.6-.178-.839-.054-.613.333-1.291.857-1.5.482-.196 1.154.018 1.38.435.328.59.334.791.06 1.833l-.875 3.309c-.13.5-.297 1.118-.28 1.815.024.952.411 1.815 1.066 2.362.506.429 1.16.637 1.82.637a3.18 3.18 0 0 0 2.078-.774c.797-.702 1.267-1.803 1.291-3.029.012-.857-.178-1.648-.345-2.35l-.036-.143q-.151-.626-.321-1.268c-.625-2.398-1.214-4.66-.149-6.57.405-.726 1.107-1.362 2.208-2l7.736-4.462c.703-.405.946-1.31.542-2.012a1.47 1.47 0 0 0-2.012-.541l-7.718 4.457zM6.225 59.284q-.001.168.006.328c.012.184.035.374.06.565.017.166.029.333.053.506.184 1.327.56 2.737 1.07 4.142.049.125.084.25.132.374a26 26 0 0 0 1.565 3.38c.196.364.405.727.619 1.078 2.737 4.51 6.332 7.689 9.379 8.278.357.071.702.1 1.041.1.946 0 1.803-.273 2.517-.802.947-.703 2.06-2.19 1.982-5.267-.077-3.1-1.357-6.915-3.505-10.462-2.166-3.57-4.898-6.344-7.498-7.617h-.006c-.786-.381-1.548-.62-2.262-.715-.964-.124-1.845.012-2.612.411q-.285.15-.554.345c-1.077.804-1.672 2.047-1.892 3.535-.006.054-.024.107-.03.16a9 9 0 0 0-.06.804c0 .054-.011.107-.011.16 0 .227.006.46.012.691zM20.72 74.977c-.035-.071-.065-.149-.125-.208a.58.58 0 0 0-.57-.179c-.197.054-.346.226-.405.435-1.827-.387-4.797-2.654-7.368-6.898-.047-.077-.083-.148-.13-.226l.011.012a.7.7 0 0 0 .452.179.63.63 0 0 0 .482-.226c.232-.274.203-.673-.06-.965-.172-.184-.392-.261-.612-.202a.695.695 0 0 0-.476.857c-.214-.369-.41-.738-.595-1.095a.67.67 0 0 0 .369-.458.75.75 0 0 0-.209-.667c-.178-.184-.41-.255-.63-.196-.048.012-.084.054-.131.083a23 23 0 0 1-.512-1.231c-.286-.756-.5-1.47-.667-2.149a.64.64 0 0 0 .34-.196c.232-.274.202-.673-.06-.964a.61.61 0 0 0-.553-.203 10 10 0 0 1-.113-2 .4.4 0 0 0 .148.03.48.48 0 0 0 .363-.166c.203-.226.179-.565-.041-.797a.56.56 0 0 0-.304-.161c.143-.506.357-.887.637-1.101.006-.006.018-.006.03-.012a.77.77 0 0 0 .208.625.7.7 0 0 0 .482.226c.024 0 .048-.012.077-.018v.036c-.006.071-.018.143-.023.22a9 9 0 0 0 0 1.113c0 .071.011.149.017.22l.018.244a.6.6 0 0 0-.523.196.69.69 0 0 0-.143.667c.077.256.28.464.518.535a.54.54 0 0 0 .363-.017q.087.421.202.85l.071.262c.12.417.244.828.393 1.244.018.054.036.101.06.15.107.297.226.6.35.898a.65.65 0 0 0-.297.416.74.74 0 0 0 .208.667l.018.018a.67.67 0 0 0 .447.178c.065 0 .13-.024.19-.041a14 14 0 0 0 .333.654c.209.393.423.786.649 1.16.28.465.571.9.863 1.322.03.041.06.089.09.13.279.4.57.768.862 1.131.042.054.09.107.13.167q.207.242.412.476a.6.6 0 0 0-.447-.16.67.67 0 0 0-.571.481c-.072.25 0 .518.196.72l.018.018a.7.7 0 0 0 .458.179c.155 0 .31-.054.429-.167.232-.214.262-.565.083-.875-.018-.03-.035-.047-.053-.071.113.125.232.25.345.369.047.053.1.101.148.155q.44.447.887.833c.048.041.095.077.143.119.304.256.607.494.916.702.036.024.072.042.102.066a10 10 0 0 0 .964.577 8 8 0 0 0 1.03.44c.1.036.202.06.309.09a.735.735 0 0 0 .405.851c-.018.03-.03.065-.048.095-.036.065-.078.119-.113.172-.018.03-.042.06-.06.09q-.096.115-.202.196a2 2 0 0 1-.185.107z"/><path d="M16.931 71.448a.63.63 0 0 0-.434.488.69.69 0 0 0 .19.625.6.6 0 0 0 .435.202h.041a.58.58 0 0 0 .393-.196c.238-.268.22-.667-.041-.934a.6.6 0 0 0-.59-.185zm-2.505-3.083a.68.68 0 0 0-.489-.119c-.386.048-.618.4-.553.81v.03c.113.404.434.595.732.6.042 0 .083 0 .125-.011.357-.066.565-.393.494-.792a.78.78 0 0 0-.31-.512zM10.82 62.04a.68.68 0 0 0-.571.482.73.73 0 0 0 .196.714l.018.018a.7.7 0 0 0 .458.178c.155 0 .31-.053.429-.167.232-.214.261-.565.083-.874-.143-.244-.375-.375-.613-.358zm8.278 11.104c-.274-.232-.643-.238-.887-.012-.226.214-.261.566-.083.875.13.226.34.357.56.363h.053a.68.68 0 0 0 .571-.482.73.73 0 0 0-.196-.714l-.018-.018zm49.696-24.869 2.291 1.41-2.374 4.166a1.477 1.477 0 0 0 1.273 2.208c.512 0 1.012-.268 1.28-.744l2.327-4.083 2.225 1.37c.238.148.506.22.768.22a1.475 1.475 0 0 0 .774-2.732l-2.303-1.417 2.332-4.088a1.477 1.477 0 0 0-.547-2.011 1.47 1.47 0 0 0-2.012.547l-2.285 4.005-2.208-1.357a1.477 1.477 0 0 0-2.029.482 1.48 1.48 0 0 0 .482 2.03z"/></svg>