<svg xmlns="http://www.w3.org/2000/svg" fill="currentColor" viewBox="0 0 303.33 64.36"><path d="M25.63 20.59a13.6 13.6 0 0 0-3.48-2.37 9.6 9.6 0 0 0-4.22-1 7.4 7.4 0 0 0-3.15.67 2.34 2.34 0 0 0-1.44 2.3 2.29 2.29 0 0 0 1.59 2.22 35 35 0 0 0 5.15 1.48 28 28 0 0 1 4.18 1.26 14.8 14.8 0 0 1 3.81 2.15 10.3 10.3 0 0 1 2.74 3.26 9.56 9.56 0 0 1 1 4.59A11.06 11.06 0 0 1 26.78 45a15.8 15.8 0 0 1-5.07 2.15 24.4 24.4 0 0 1-5.63.67 27.8 27.8 0 0 1-8.85-1.44A18.6 18.6 0 0 1 0 42.07l6.81-7.18a13.6 13.6 0 0 0 4 3 11.1 11.1 0 0 0 5 1.18 6.6 6.6 0 0 0 2.93-.7 2.53 2.53 0 0 0 1.44-2.48 2.66 2.66 0 0 0-1.78-2.52 32 32 0 0 0-5.55-1.7A29 29 0 0 1 9 30.44a12.2 12.2 0 0 1-3.44-2 9.9 9.9 0 0 1-2.48-3.11 9.5 9.5 0 0 1-1-4.44 10.77 10.77 0 0 1 1.41-5.67 11.9 11.9 0 0 1 3.63-3.81 16.2 16.2 0 0 1 4.93-2.18 21.3 21.3 0 0 1 5.37-.7 26 26 0 0 1 8.11 1.3 17.54 17.54 0 0 1 6.7 3.89ZM34.8 9.7V0h11.93v9.7h8.67v9h-8.67v14.17a6.35 6.35 0 0 0 1 3.9q1 1.3 3.59 1.3a13 13 0 0 0 1.89-.15 6.5 6.5 0 0 0 1.67-.44l.12 8.89a20 20 0 0 1-3.18.78 22.5 22.5 0 0 1-3.85.33 18.1 18.1 0 0 1-6.22-.93 9.6 9.6 0 0 1-4-2.67 10.5 10.5 0 0 1-2.18-4.16 20.2 20.2 0 0 1-.67-5.38v-15.6m24.7-4a21.3 21.3 0 0 1 7.59-4.67A26 26 0 0 1 76 8.52a23.7 23.7 0 0 1 7.89 1.15 11.77 11.77 0 0 1 5.22 3.56 15.2 15.2 0 0 1 2.93 6.07A36 36 0 0 1 93 28v18.59H81.9v-3.93h-.22a9.14 9.14 0 0 1-4.26 3.56 15.15 15.15 0 0 1-6.18 1.26 19 19 0 0 1-4.59-.59A13.4 13.4 0 0 1 62.31 45a10.4 10.4 0 0 1-3.22-3.56 11 11 0 0 1-1.26-5.48A9.3 9.3 0 0 1 60 29.48a14.3 14.3 0 0 1 5.63-3.78 29.8 29.8 0 0 1 7.67-1.78 79 79 0 0 1 8.22-.44v-.59a4.52 4.52 0 0 0-1.93-4 8.3 8.3 0 0 0-4.74-1.3 11.8 11.8 0 0 0-5 1.11 16 16 0 0 0-4.11 2.67Zm22.3 15.78h-1.56q-2 0-4 .19a16.7 16.7 0 0 0-3.63.7A6.7 6.7 0 0 0 70 32.92a3.48 3.48 0 0 0-1 2.63 3.2 3.2 0 0 0 .48 1.78 3.7 3.7 0 0 0 1.22 1.19 5.2 5.2 0 0 0 1.7.63 10 10 0 0 0 1.85.19 7.5 7.5 0 0 0 5.67-2 7.62 7.62 0 0 0 2-5.52Zm54.74 12.59a25.9 25.9 0 0 1-1.56 9.41 17.7 17.7 0 0 1-4.37 6.63 17.9 17.9 0 0 1-6.85 3.93 29.1 29.1 0 0 1-8.93 1.3 36.2 36.2 0 0 1-10-1.48A27.5 27.5 0 0 1 96 58.59l6-8.67a17.8 17.8 0 0 0 5.89 3.52 18.8 18.8 0 0 0 6.33 1.15q5.33 0 7.89-2.81a10.7 10.7 0 0 0 2.56-7.48v-2.23h-.22a12 12 0 0 1-4.59 3.56 15.6 15.6 0 0 1-6.55 1.37 17.5 17.5 0 0 1-7.48-1.52 16.4 16.4 0 0 1-5.52-4.11 18 18 0 0 1-3.44-6A22.3 22.3 0 0 1 95.68 28a22.6 22.6 0 0 1 1.18-7.33 18.7 18.7 0 0 1 3.44-6.15 16.46 16.46 0 0 1 12.92-5.85 16.3 16.3 0 0 1 6.67 1.41 11.57 11.57 0 0 1 5.11 4.36h.15V9.7h11.48Zm-11.56-15.19a10.2 10.2 0 0 0-.63-3.56 9.1 9.1 0 0 0-1.81-3 8.6 8.6 0 0 0-2.81-2 8.9 8.9 0 0 0-3.7-.74 8.6 8.6 0 0 0-3.67.74 8.1 8.1 0 0 0-2.7 2 8.8 8.8 0 0 0-1.7 3 11 11 0 0 0-.59 3.63 10.7 10.7 0 0 0 .59 3.56 9.2 9.2 0 0 0 1.7 3 8.1 8.1 0 0 0 6.37 2.85 8.72 8.72 0 0 0 6.56-2.81 9 9 0 0 0 1.78-3 10.4 10.4 0 0 0 .61-3.67m52.82.67v1.48a13 13 0 0 1-.07 1.41h-26.74a6.4 6.4 0 0 0 .93 2.81 8 8 0 0 0 2 2.18 9.8 9.8 0 0 0 5.89 2 10.2 10.2 0 0 0 4.89-1.07 9.66 9.66 0 0 0 3.26-2.78l8.44 5.33a17.1 17.1 0 0 1-6.85 5.81 22.7 22.7 0 0 1-9.89 2 23.6 23.6 0 0 1-7.85-1.3 19 19 0 0 1-6.48-3.78 17.5 17.5 0 0 1-4.37-6.11 20.45 20.45 0 0 1-1.59-8.3 20.8 20.8 0 0 1 1.53-8.16 18.5 18.5 0 0 1 4.22-6.22 18.8 18.8 0 0 1 6.3-4 21.5 21.5 0 0 1 7.85-1.41 19.9 19.9 0 0 1 7.48 1.37 16.3 16.3 0 0 1 5.85 4 18.3 18.3 0 0 1 3.81 6.3 24.2 24.2 0 0 1 1.39 8.44m-11.18-4.67a7.28 7.28 0 0 0-1.81-5 6.85 6.85 0 0 0-5.44-2.07 9.2 9.2 0 0 0-3.26.56 8.5 8.5 0 0 0-2.6 1.59 7.5 7.5 0 0 0-1.78 2.26 6.6 6.6 0 0 0-.74 2.7Zm27.95 23.42h-3.91V12.41H177.9V8.93h29.62v3.47h-12.85ZM224 42h.11l9.6-33h4.67l9.6 33h.11l9.39-33h4.12l-11.37 38.34h-4.56l-9.66-33h-.11l-9.66 33h-4.56L210.35 8.93h4.12Zm79.33-13.86a21 21 0 0 1-1.52 8.08 19.07 19.07 0 0 1-10.55 10.58 21.55 21.55 0 0 1-15.9 0 19.07 19.07 0 0 1-10.55-10.58 21 21 0 0 1-1.52-8.08 21 21 0 0 1 1.52-8.08 19.07 19.07 0 0 1 10.56-10.58 21.55 21.55 0 0 1 15.9 0 19.07 19.07 0 0 1 10.55 10.58 21 21 0 0 1 1.51 8.08m-4.12 0a18.8 18.8 0 0 0-1.09-6.39 16 16 0 0 0-3.12-5.31 15.1 15.1 0 0 0-5-3.66 17 17 0 0 0-13.29 0 15.1 15.1 0 0 0-5 3.66 16 16 0 0 0-3.15 5.33 19.37 19.37 0 0 0 0 12.78 15.7 15.7 0 0 0 3.15 5.31 15.2 15.2 0 0 0 5 3.63 17 17 0 0 0 13.29 0 15.3 15.3 0 0 0 5-3.63 15.7 15.7 0 0 0 3.15-5.31 18.8 18.8 0 0 0 1.06-6.38Z"/><title>Stage Two</title></svg>