<svg xmlns="http://www.w3.org/2000/svg" id="Layer_1" viewBox="0 0 117.5 129.3"><defs><style>.st0{fill-rule:evenodd;fill:currentColor}</style></defs><g id="logo-sketch"><g id="text"><g id="Mask"><path id="path-1" d="M113.9 114.9c2.1 0 3.5 1.2 3.6 2.7 0 1.1-.9 2-2 2-2.4 0-1.8-1.8-2.8-1.8-2.2 0-4 3.4-5.7 7.1l-.3.6-.4.9-.4.8c-.9 1.8-1.3 2.1-2 2.1-1.7 0-2-4.5-2.7-6.5-1.4 3-4.2 6.5-8.6 6.5-2.6-.1-5.1-1.4-5.1-5.4s3-7.7 6-7.7 3.8 2.4 3.8 4c0 4.4-6 4.5-6 5.4s1.5 1.2 2.4 1.2c3.8 0 6.3-4.9 7.2-8.3.2-.6.7-1.8 1.8-1.8s.6 7.4 2.3 7.4 2.5-9.2 8.8-9.2Zm-59.2-10.1c2-.1 3.6 1.8 3.8 4.8.4 8-2.3 11.2-3.7 14.1.3 1.1 2.2 3 4 3s1.5-.3 1.7-.6c-.2-.5-.3-1-.3-1.9 0-4.6 3.1-8.4 5.7-8.4s3.3 2.7 3.3 4.5-1.8 3.8-4.5 5.4c.5.5 1.4.8 2.1.8 3.8.1 5.9-4.5 7.4-8.6.3-.8.8-1.9 1.7-1.9 1.6 0 2.2 10.4 4.9 10.4s2.1-2.3 2.1-4.1c0-1.4-.4-1.5-.4-3.4s1.1-3.9 2.7-3.9 1.3.9 1.3 2c0 4.2-3.2 12-7.8 12s-3.1-5.8-4.3-5.8-3.2 5.8-9.9 5.8-2.3-.5-3.2-1.6c-1.6 1.1-3 1.5-4.5 1.5-2.5 0-3.6-2.5-4.6-2.5s-2.6 2.5-6.6 2.5-3.8-4.2-4.9-4.2-2.6 4.2-4.3 4.2-2.2-1.7-3-3.5l-.2-.5c-.8-1.7-1.5-3.2-2.7-3.2s-2.8 1.7-4.7 3.4l-.5.5c-1.9 1.7-3.8 3.4-4.6 3.3q-1.05-.15-.9-1.2c.1-.9 1-3.4 1.3-4.5.6-2 1.1-4.2 1.4-4.9.2-.7 1-1.2 1.6-1.1.3 0 .4.5.5 1 .3 1.6.8 3.3 1.3 3.3.9 0 4.1-5.8 5.9-5.8s2.5 9.2 5.5 9.2 1.7-1.2 2.4-2.6c0-2.4.8-5.9 2.8-5.9s2 3.1 1 5.8c0 3.2 2.1 4 3.5 4s2.7-.3 4.1-2.4c-.8-1.7-1.3-5.2-1.4-6.4-.3-6.4 2.2-12.4 5-12.5Zm-38.5 2c1.2-.4 1.7.2 2.2 1.6.6 2.1.6 4.9.4 8.8-.3 5.4-3.1 11.9-10 11.7-6-.1-8.6-3.9-8.8-9.6-.1-2.7.1-5.4 1.3-9.2.7-2 1.2-2.7 3.1-3.1 1.5-.3 1.3 1.2 1 3-.8 3.9-1.1 5.8-.9 10.3.3 4.7 2.5 6.6 4.9 6.6 3.7.1 5.3-2.8 6-7.1.5-3.4.1-5-.2-6.1-.2-.6-.8-1.9-.9-2.9-.4-2.2.8-3.7 1.9-4m48.7 12.1c-.6-.1-2 .6-2 2.7s.6 2.5.9 2.8c2-.6 2.5-2.2 2.4-3.5 0-1.1-.6-2-1.3-2m27.8-.1c-2.6 0-2.4 4.1-2 5 1.9-.3 3.2-1.4 3.5-2.4s0-2.6-1.5-2.6m-37.8-10.1h-.1c-1.3.1-1.9 4.2-1.7 8.5.2 2.8.6 3.2 1 3.2.7 0 2.5-5.1 2.3-9.1 0-1.8-.6-2.7-1.6-2.6zm-11.6-3.1c1.2 0 2 .7 2.1 1.8.2 1.5-.9 3.1-2.4 3.1s-1.9-.9-2.1-2c0-1.6 1.1-2.9 2.4-2.9" class="st0"/></g></g><path id="fish" d="M68.7 83.8c-.4-.7 0-1.9-1.2-1.9s-.8.6-.9 1.1c-1.5-.5-2.8-.7-4-.7s-1.5 0-2.2.3c-.4-.7-2.2-2.1-3.7-2.6-.6 3.3-3.5 5.8-7.8 6.2-.2 2.1-1.9 2.7-3.2 2.7s-2.4-.3-2.5-.7c-.5-3.1-2.8-4.8-3.9-5.2v1c0 2.6-1.8 4.2-5.1 4.2s-1.2 0-1.7-.1c3.8 4.2 6.5 2.7 8.2 3.5 2.3 1 4.2 4.3 11.6 4.3s5.4-1.1 7.2-2.2c.3 1.1 1.4 2.1 3.3 2.1 3.1 0 4.9-1 4.9-1.8s0-.5-.6-.5-.5.1-2.2.1-5.2-.8-6.7-4.3c-.3-.6-.7-.6-.8-.6-1 0-2.6 3.6-8.9 3.6s-3.9-1-3.9-1.2V91c.3 0 1.2.1 2.4.1 4 0 7.2-1.9 9.2-4 .7-.8 1-.9 1.6-.9s1 .4 1.3 1.1c.9 2.3 3 4.2 5.2 4.2s3.1-5.2 3.8-5.5c0 0 .3.1.4.1.4 0 .9-.3.9-.9 0-.8-.8-1-.9-1.4Zm-5 3.9c-.8 0-1.4-.6-1.4-1.4s.6-1.5 1.4-1.5 1.4.7 1.4 1.4c0 .9-.6 1.5-1.4 1.5" class="st0"/><path id="chilli_pepper" d="M53.3 73.8c.7 0 1 .6 1.1 1.2.2-.2.5-.3.8-.3.7 0 1.1.5 1.1 1.1s-.2.7-.5.9c.4.2.7.5.7.9s-.4.9-1 .9-.9-.6-1.4-.6-.7 0-.8.3c.2.5.3.9.3 1.4 0 2.6-3.5 4.7-7.2 4.7s-5-2.1-5-3 0-.3.4-.3c.6 0 .7.2 2.4.2 3.9 0 2.5-5 6.2-5s1.6.3 2 1c.3-.3.4-.7.4-1 0-.6-.4-1-.4-1.5s.4-.8.9-.9" class="st0"/><path id="swirl" d="M30.1 71.2c4.4 0 7.8 3.7 7.8 9s-1.3 5.9-6.6 5.9-10.1-5.3-10.1-8.7 1.9-4.7 3.1-5c-1.3 5.2 1.6 10.2 7.4 10.2s4.3-1.4 4.3-3.9-1.9-5.5-5.2-5.5-2.8.9-2.8 2.2c0 2.1 1.8 3.4 3.7 3.4s2-.5 2-1.3v-.4h-.8c-1.5 0-2.7-.8-2.7-1.7s.5-1.1 1.1-1.1c2.2 0 3.7 2.2 3.7 3.8s-1.2 3-3.2 3c-4.3 0-6.2-3.5-6.2-5.8 0-2.5 2.2-4.2 4.6-4.2Z" class="st0"/><g id="packaging"><path d="M82.8 83c-.9.7-3.1 2.3-6.8 2.3s-2.8-.6-3.1-.6-.8.4-1.2.8c-.9 1-2 2.8-2 4.9s1.1 2.8 3.2 2.8c6.8 0 11.8-4.2 11.8-7.5.1-1.9-1.1-2.7-1.9-2.7m-3.5 6.5-3.9 1.1c.3-.8.5-1.7.5-2.6v-.8h.5c2.9 0 4.1-1.1 4.3-1.1s.4.1.4.7-.4 1.9-1.7 2.7Z" class="st0"/><path d="M77 83.8c1.6 0 3-.4 3.9-1.2.3-.2.4-.6.4-1v-.8c0-1-1.6-1.6-3.8-1.6s-4 1.2-4 1.7v1.6c0 .6 1.5 1.3 3.5 1.3" class="st0"/></g><path id="clothes" d="M89.2 66.8c-5.3 0-3.9 4.5-10.1 5.9-1.1.2-1.5.6-1.5 1.1 0 .9.5 2.1 1.2 2.1 2.7 0 6.8-5.5 7.6-5.5s.6 0 .6.8c0 2-5.8 4.6-5.8 6s2 2.6 4.1 2.6 5.5-5.8 6.1-5.8.6.3.6.7c0 1.6-2 4.7-5.4 6-.7.3-.8.6-.8.8 0 .8.9 1.9 1.7 1.9s7.7-5.8 7.7-10.4c.2-4.3-3.1-6.2-6-6.2m2.4 5c-.4 0-.8 0-1-.3-.5-.2-1.3-.9-1.3-1.9s.5-1.3 1-1.3c1.5 0 3.2 1.3 3.2 2.4s-.8 1.1-1.9 1.1" class="st0"/><path id="spoon" d="M41.6 74.2h-.9c-.3 0-.8 0-1.1-.3-.6-.5-.8-3.2-1.8-4.8-1.2-1.8-2.5-2.3-4.2-2.3s-2.6.7-2.6 1.7.3 1 2.6 1.6c2.9.7 4.3 2.3 4.6 4.1s.6 3.2 1.3 3.9c.9 1 2.6 1.9 4.2 1.9s2.3-.4 2.3-1.6c0-1.3-1.9-4.2-4.4-4.2m1.9 3.9c-1.1 0-2.7-1.1-2.7-1.8s.5-.8.9-.8c.9 0 2.5 1.1 2.5 2s-.2.6-.7.6" class="st0"/><g id="wave"><path d="M63.4 70.5c-.7 0-.7 1.1-.7 1.5s0 .5-.3.5h-.8c-.3 0-.4.2-.4.5 0 1.5 1.9 2.7 3.8 2.7s3.7-1.1 4.4-1.1.4.3.4.5c0 .4-.4.9-.4 1.1 0 .6 1.2 0 1.2.8s-1.5 1.6-3.8 1.6c-4.5 0-7.4-3.1-7.4-6 0-5.4 5.8-3.7 5.8-5.8s-.7-1.1-1.2-1.1c.6-.8 1.4-.9 2.2-.9h1.7c.5 0 1.4-.3 1.4-1.1s-.4-1.1-2.1-1.3c.2-1.1 2.5-.5 2.5-1.5s-1.3-1.2-2.9-1.2c-6.2 0-10.6 5.1-10.6 10.6s3.6 10.5 10.3 10.5 9.6-5.3 9.6-9.3c-1.2 1.1-4.4 1.4-6 1.4-4.7 0-6-2.4-6.7-2.4" class="st0"/><path d="M68.5 71.2c1 0 1.7-.8 1.7-1.7 0-1.4-1.4-2.7-3.5-2.7.4.4.5.7.5 1.1s-.3 1.1-.3 1.7c0 .9.6 1.6 1.6 1.6m10.1-6.8c.3.4.4.8.4 1.2 0 1-.7 2-.7 3s.9 2.2 2.3 2.2 2.5-1.2 2.5-2.6c-.1-2-1.8-3.6-4.5-3.8m-7.2-3.8c.5.6.7 1.2.7 1.9 0 1.6-1.2 3.2-1.2 4.7s1.3 3.3 3.2 3.3 3.2-1.7 3.2-3.6c0-2.7-2.1-5.6-5.9-6.3m2.8 5.7c-.5 0-.9-.4-.9-.9s.2-.7.2-1.1c0-.5 0-.9.3-.9.6 0 1.3 1.1 1.3 1.8s-.3 1.1-.9 1.1" class="st0"/></g><g id="bowl"><path d="M51.1 62c-1.6-.6-2.3-1.5-2.7-3.4-.8 1.1-1.2 2.1-1.2 2.7 0 2.4 3.3 2.4 3.3 4s-1.7 1.9-3.9 1.9-4.3-.4-5.9-2-.6-.8-1.1-.8-.9 1-.9 2c0 3.4 3.3 7.5 7.9 7.5s8-3.9 8-7.1c0-1.9-.3-3.6-3.5-4.8m-1.6 9.6c-.5 0-.6-.2-.6-.7v-1.4c0-1.2.5-1.1 1.7-1.7.9-.4 1.2-.9 1.5-.9s.6.2.6.7c0 1.8-2 4-3.3 4Z" class="st0"/><path d="M43.8 56.2c-.6 0-1.6-.6-2.6-1.4-1.1 1.1-1.9 2.6-1.9 4.3 0 3.5 3.7 6.4 7.3 6.4s1.2 0 1.8-.2c-2-.2-3.2-1.7-3.2-3.5s2.6-4.4 2.6-6.2-2.7-2.4-2.7-4.2 2.6-2.6 2.5-5c0-1.4-1.4-3.1-3.3-4.1.3.6.5 1.4.5 1.9 0 2.8-5.4 4-5.4 6.2s5.2 3.9 5.2 5.2-.2.6-.8.6" class="st0"/></g><path id="heart" d="M98.3 58c1.8 0 3.2 2.3 3.2 5s-1.4 6-3.8 8.2c0-4.8-5.9-3.3-5.9-6.8s1.1-2.5 2.4-2.5 2 .3 2.7 1c-.6-.6-1-1.5-1-2.3 0-1.3.8-2.6 2.4-2.6" class="st0"/><path id="flower" d="M27.5 62.9c-.5 0-.9.2-1.2.5-.3-1.1-1.3-2.1-2.7-1.8-1.2.2-2.1 1.3-1.9 2.7 0 .2 0 .5.2.7h-.4c-1 .2-2.2 1.2-2 2.7.2 1.3 1.3 2.2 2.6 2.1.5 0 .9-.2 1.2-.4.3 1.2 1.3 1.9 2.6 1.8 1.3-.2 2.2-1.3 2.1-2.6 0-.4 0-.6-.2-.8h.3c1.3-.3 2.2-1.3 2.1-2.6-.4-1.6-1.5-2.6-2.7-2.4Zm-2.6 4.9c-.8 0-1.4-.5-1.5-1.2 0-.8.4-1.5 1.2-1.6.8 0 1.4.5 1.5 1.2 0 .8-.4 1.5-1.2 1.6" class="st0"/><g id="transformation"><path d="M92.3 56.9c0-.5 1.2-1.7 1.2-2.1s-.1-.2-.2-.2c-.5 0-2.2 1.3-4.7 1.3s-1.7 0-1.7-.9.6-1.3 1.6-1.7c1.1-.5 3.3-.5 3.3-1s-2.1-.4-2.1-.8.8-1.7.8-2.2c0 0 0-.2-.1-.2-.4 0-1.4 1.2-2 1.2s-1.1-1.5-1.6-1.5-.3 0-.3.4c0 .6.3 1.7.3 3.2s-.7 2.4-1.4 2.4-1.2-1.1-1.2-2c0-1.3.7-2.8.7-4.2s-.1-.4-.3-.4c-.5 0-1.3 1.5-1.9 1.5s-1.1-1.8-1.7-1.8-.2.3-.2.7.1 1.2.1 1.5-.5.5-1.1.5-1.2 0-1.2.3.8.6 1.5 1.1c1.3.9 3.4 1.8 3.4 3.9s-2.7 3.2-4.6 3.6c-.9 0-1.8.3-1.8.6s2.4.5 2.4 1-1.1 1.7-1.1 2.1.1 0 .1 0c.4 0 1.6-1 2.1-1s.6 2.1 1.1 2.1.4-3.1.6-3.9c.4-1.4 1.4-2.8 2.3-2.8s1.2 1.9 1.2 2.8c0 1.8-1.3 3.7-1.3 4.6s.1.2.2.2c.4 0 1.3-1.2 1.8-1.2s1.6 2 2 2 .3-.2.3-.4c0-.6-.3-1.6-.3-2.2s2.3-.3 2.3-.8-1-.6-1.6-1c-1.3-.8-2.8-2.5-2.8-3.9s.3-.9.7-.9c2.8 0 4 4.3 4.5 4.3s.2-1.9.4-2.2c.1 0 .4-.2.7-.2h1.9c-.1-.6-2.3-1.3-2.3-1.9Z" class="st0"/><path d="M81.2 55.7c0-.9-3.9-3.9-4.7-3.9s-.3 0-.3.3v1c0 .7-.3.8-1 .8s-2.1-.3-2.1-1.6c0-2.5 4.8-1.9 5.3-4.2-2.1 0-3.1-1.4-4.5-1.4s-1.5.3-1.5 1.6V50c0 .6 0 1-.8 1s-.7-.7-.7-1.5v-2c0-3.7-4.1-2.2-4.5-5.2-1 1.8-1.3 3.1-1.3 4.2 0 3.9 5.3 3.5 5.3 6.2s-.5 1.1-1 1.1c-.9 0-1.5-1.9-2.9-1.9s-1.2.5-1.2 1.6.2 1.4.2 2.2c0 1.6-.7 2.3-1.4 3 4.8-.4 5.1-4 6.5-4s.6.3.6.5c0 .6-1 1.6-1 2.6s1.5 2 2.5 2 1.6-.4 1.6-1.2-1.6-2.1-1.6-3.1.5-.6 1.2-.6c1.5 0 2 .2 2 .5s-.6 1.2-.6 1.4 0 .4.4.4c1.1.2 5.2-.7 5.2-1.5Z" class="st0"/></g><path id="hair" d="M30.7 42.2c-.7 1.3-.9 3-.9 4 0 6.1 7.3 11.8 7.3 15.6S36 65.1 34 65.1s-2.8-1.4-2.8-2.6.6-1.7.9-1.7 0 0 0 .3c0 .5.4 1.2 1.2 1.1.8 0 1.2-.5 1.2-1.2 0-3-6-8.2-6-15.3-.3.8-.7 1.8-.7 3.3 0 3.4 2.5 7 2.5 10.3s-1 2.5-2.3 2.5-2-1.2-2-1.9.2-1 .4-1 0 .8.9.8 1.2-.6 1.2-1.7c0-3-1.7-5.1-1.7-8.2v-1.4c-.9 1.1-1 2.7-1 4.1v3.7c0 2.5-1.2 3.6-2.7 3.6s-1.9-.8-1.9-2.1 0-.8.3-.8.5.8 1.3.8c1.6 0 1.7-1.5 1.7-4.6-.2-3.8 1.2-7.9 6-10.9Z" class="st0"/><path id="hand" d="M20.8 40.4c.5 0 .7.5.7.9 0 1.7-2.2 6.7-2.2 8.1s0 .4.3.4c.9 0 2.7-3.9 3.3-5.8.3-1 .8-1.5 1.2-1.5s.7.4.7 1.2c0 1.9-1.8 6.5-3.4 9.5-1.2 2.4-3.2 5.8-3.2 7.7s.2 2 1.6 3.2c-2.3 0-3.3-.4-4.2-2.1-3.9 7.6 7.2 6.9 3.4 13.7-.7-1.2-6.2-2.5-6.2-9.6s5.5-9.7 5.5-12.3-.2-.9-.7-1.3c-1.2-1-1.2-1.8-2.2-1.8s-1.5 1.6-.7 3c.3.5.5.8.5 1.2 0 1-1.6 3.7-2.7 3.7s-2-2.8-2-7.2.9-7.9 2-7.9.4.2.4.5v3c0 1.6.4 1.8.7 1.8 1.2 0 1-7.5 3-7.5s.6.5.6 1c0 1.7-.8 4.2-.8 5.5s.2.9.5.9c1 0 2.5-8.3 4-8.3Z" class="st0"/><path id="plant" d="M102.1 50.2c-1.7 0-2.6 3-4.3 3.1 1-4.3 5.3-6.6 5.3-10.6s-3.8-6.2-5.4-7.2c-2.6-3.8-4.5-6.8-8.8-6.8s-3 .3-4.2.3c-2.4 0-3.2-.9-3.3-.9 0 0-.1 0-.1.2 0 3.4 1.8 11 9.4 11s5.8-1.6 6.8-1.6 4.3 1.1 4.3 5-1.7 4.3-2.3 4.3-1.2-1-1.2-2 .6-3.2.6-4.5-.1-.7-.4-.7c-.6 0-3.7 2-3.7 4.4s3.1 3.4 4.3 4c-1.2 1.9-1.9 3.2-2.4 5 0-1.4-1.3-4.1-1.7-5.3-1.9-5.4-2.6-6.4-6.7-6.9.6 2.2 7.6 7.4 7.6 12.7s0 .8-.1 1c-2.1-6.2-5.7-7.7-7-9.2-2.1-2.4-.9-4.7-4.3-6 .2.3.3.7.3 1 0 1.2-.6 2.6-.6 3.6 0 3.8 4.3 2.6 6.9 4.7 2.5 2 3.9 5.3 4.9 9 1-1.6 1.6-3.6 3.3-3.6s1.5 1.4 1.5 2.5v.5c1.7-1.5 2.6-3.9 2.6-5.5-.1-.8-.5-1.5-1.3-1.5m-6.8-14.1c-.4 0-1-.2-1.5-.2-1.2 0-2.1 1.7-2.7 1.7s-.3-.2-.3-.4c0-.7 1.2-1.5 1.2-2s-.5-.4-.7-.4c-1.2 0-2.9 1.7-3.9 1.7s-.4 0-.4-.3c0-.5 1.3-1.1 1.3-1.6s-.5-.5-.9-.5c-.6 0-1.8.3-2.5.3s-.7 0-.7-.4c0-.7 2.3-.3 2.3-1.1s-.7-1.2-.7-1.6.2-.3.4-.3c.8 0 1.7 2.3 2.6 2.3s.5-.3.5-.8-.1-.7-.1-1.1.2-.5.3-.5c.6 0 1.1 3.2 2.8 3.2s.2-2 .9-2 .5.6.5.9c.2 2.1 2.1 2.2 2.1 3h-.5Z" class="st0"/><path id="particles" d="M71.4 31.4c.8 0 1.4.6 1.4 1.3s-.6 1.3-1.4 1.3-1.4-.6-1.4-1.3.7-1.3 1.4-1.3M80.6 44c-.7 0-1.4.6-1.4 1.3s.7 1.3 1.4 1.3S82 46 82 45.2s-.6-1.2-1.4-1.2M76 41.5c-1.4 0-2.5 1.1-2.5 2.4s1.1 2.4 2.5 2.4 2.5-1.1 2.5-2.4-1.1-2.4-2.5-2.4m-4.4-1.1c-.8 0-1.4.6-1.4 1.4s.7 1.4 1.4 1.4 1.4-.6 1.4-1.4-.6-1.4-1.4-1.4m8.8 2.2c.9 0 1.7-.7 1.7-1.6s-.8-1.6-1.7-1.6-1.7.7-1.7 1.6.8 1.6 1.7 1.6m-13-5.1c-1.1 0-2.1.9-2.1 2s.9 2 2.1 2 2.1-.9 2.1-2-1-2-2.1-2m7.5 1.5c0 .8.6 1.4 1.4 1.4s1.4-.6 1.4-1.4-.6-1.4-1.4-1.4-1.4.7-1.4 1.4m-2.8.4c1.2 0 2.2-.9 2.2-2.1s-1-2.1-2.2-2.1-2.2.9-2.2 2.1.9 2.1 2.2 2.1m8-1.4c.8 0 1.5-.7 1.5-1.5s-.7-1.5-1.5-1.4c-.8 0-1.5.7-1.5 1.5s.7 1.4 1.5 1.4M68 36c.8 0 1.4-.6 1.4-1.4s-.6-1.4-1.4-1.4-1.4.6-1.4 1.4.6 1.4 1.4 1.4m8.2-.1c1.3 0 2.3-1 2.3-2.2s-1-2.2-2.3-2.2-2.3 1-2.3 2.2 1 2.2 2.3 2.2m1.7-5.2c.8 0 1.4-.6 1.4-1.3s-.6-1.3-1.4-1.3-1.4.6-1.4 1.3c0 .8.7 1.3 1.4 1.3" class="st0"/><path id="tree" d="M37.5 32.5c.9 0 2.5 1.5 2.9 3.1h-.5c-1.2 0-1.8 1.1-2.7 3 2.1-1.4 4-2.5 6.2-2.5s3.4 1.1 3.4 2.8-.4 1.5-.8 2.3c-.3-1.6-1.6-2.3-3.9-2.3s-2.9.2-4.2.7c4.1.6 4.7 2 4.7 3.3 0 2.2-2.3 3.3-3.8 4 0-.6.3-1.3.3-2 0-1.3-.5-2.9-2.6-4.3C36.2 42 35 42.9 35 44s.3.6.5.6c0 .6-.3 2.4-.3 2.9 0 .9.2 1.1.7 1.2.3.8.3 2.2.5 2.9 0 .4.4.5.7.5.3.7.7 1.8 1.3 2.2 0 0 .3.4.3.6 0 .6-1 1.3-1.6 1.3s-.5 0-.8-.8c-.2-.5-2-1.6-2.1-2.2 0 0 .2-.3.2-.6 0-1-1.6-2.1-1.6-3.7.2 0 .4-.4.4-.7 0-.9-.9-2.6-.9-3.8.4 0 .6 0 .6-.6 0-1.2.3-2.9 1.4-3.9h-1c-2.2 0-5.5 1.2-6.8 4v-1.2c0-2.3 1.4-3.8 2.5-4.3.5-.2 1.2-.3 1.9-.3 1.2 0 2.5.2 3.9.5-1.2-1.6-3.1-2.7-4.7-2.7s-1.3.2-1.5.8v-1.2c0-1.7.6-2.7 2.1-2.7 2.2 0 4.2 2.6 5.3 5v-.3c0-3.4 0-5.1 1.5-5.2l.2.4Z" class="st0"/><path id="bee" d="M9.7 38.2c0 2.7.9 4 2.4 4s2.8-.8 4.7-2.4c-1.5.3-2.6.5-3.6.5s-2.4-.5-3.5-2.1m10.4-3.7c-.9.2-2.6 1.2-2.6 3s1 2.1 2.3 2.1 1.2 0 1.5-.4c-1-1-1.4-2-1.4-3.1s0-1.2.2-1.6m3.1-2.9c-.8.9-1.7 2.5-1.7 4.1s1.2 3.5 3.1 3.5 2.7-1.5 2.7-3c0-2.4-2.2-4.1-4.1-4.6M11 35v.5c0 1.7.9 2.6 2.2 2.6s2-.5 3-1.7h-1.3c-1.5 0-3-.3-3.9-1.5Zm7.4-9.2c-1.2 0-2.7 0-4.3 1.1-3.2 2-2.8 5.2-3.3 6.1v.4c0 .3.4.7.7.7h.6c.9 0 1.9.6 3.4.6s1.9-.3 3.1-.9c2.7-1.3 3.7-4.5 3.7-5s-.6-.6-1-1.2c-.5-.6-.3-1.2-.6-1.5-.2-.2-.7-.2-1.4-.2h-.8Zm-2.2 7.1c-1.2 0-2.6-1.5-2.6-2.8s.6-1.6 1-1.6.2 0 .3.4c.2 1.7 1.4 2.7 2.5 3.2 0 0 .2 0 .2.2 0 .3-.8.6-1.4.6m4.4-3.3c0 .5-.3 1.1-.9 1.1-1.3 0-2.3-1.9-2.4-3 0-.7.4-.7 1-.7h.6c.3.2.3.9.7 1.4.3.4 1 .8 1 1.1Zm2.8-1.6c0 .8.7 1.4 1.5 1.4s1.5-.6 1.5-1.4-.7-1.4-1.5-1.4-1.5.6-1.5 1.4m-.5-1.8c.8 0 1.5-.6 1.5-1.4s-.7-1.4-1.5-1.4-1.5.6-1.5 1.4c0 .7.7 1.4 1.5 1.4m-10.1-.7c1.3 0 2.4-.8 2.4-.8-2.2-.6-3.4-2.1-3.4-4.2v-.6c-1.4.6-2 1.7-2 2.8 0 1.7 1.4 2.8 3 2.8m6.5-1.6q.3-.9.3-2.1c0-1.7-.8-4.3-3.4-4.3s-2.5 1.1-2.5 2.4c0 2.9 3.1 4 5.6 4" class="st0"/><g id="ice_cream"><path d="M101.5 23c-1.6 3.2-5.6 3.9-6.9 3.7.4 3.3 5.3 7.7 6.6 7.6.9 0 1.2-4.3 1.2-7.6s.1-3.4-.9-3.7m.1-3.1c0-1.2-.5-2.1-1.9-2.3.2.3.3.6.3 1.1 0 1.9-2.8 4-5.9 4s-1.5.8-1.4 1.2c0 1 .9 1.4 2.2 1.4 3.5 0 6.7-2.9 6.7-5.4" class="st0"/><path d="M94.1 21.4c1.4 0 4.4-1.2 4.4-2.8s-.2-1-1-1-2.6 1.1-4.1 1.1-1.1 0-1.7-.2c.6.4.5 1.4.8 2.1.5.8 1.1.8 1.6.8" class="st0"/></g><g id="cycle"><path d="M75.3 22.2c0 3.2-2.2 4.5-4.2 4.5s-.9 0-1.3-.3c.4-.4.8-1 .8-1.4s-.2-.4-.5-.4H69c-1 0-1.8-.4-2.7-1.3-.6.9-.9 2.1-.9 3.3 0 1.9.7 3.8 1.5 3.9.4 0 .4-1.3 1.1-1.3s1 .6 2.7.6c2.5 0 5.3-1.5 5.3-5.4 0-.5-.3-1.7-.7-2.3Z" class="st0"/><path d="M69.6 20.2c.5 0 1.5.2 1.8.7-.4.2-.8.7-.8 1.1s0 .4.3.5c.9.4 1.4 1.1 1.7 1.7 1.6-.9 2.2-3.4 2.2-4.8s0-1-.4-1-.6.4-1 .4-1.2-1.2-3.4-1.2-3.6 1.9-3.6 3.5 0 .9.2 1.2c.5-1 1.5-2.1 3-2.1" class="st0"/></g><path id="DNA" d="M44.3 22.3c-1.8 0-3.4 1.5-4.6 3.5v-1.2c0-2.8-1.5-5.2-4.2-5.2s-4.3 1.3-5.1 3.9c.2-.2 1-.7 1.6-.7s.9.6.9 1.6 0 1.4-.4 2.1c-.4 1.2-1.2 1.5-1.6 1.5-1.7 0-.9-2.9-1.8-2.9s-.9 1.6-.9 2.2c0 2 1.3 4.1 4.2 4.1s4.8-1.5 6.6-3.4c.4 2.1 1.5 5.8 4.6 5.8s2.9-1.4 3-3.1c-.2.2-.5.4-.9.4-.6 0-.8-.9-.8-1.7 0-1.3.4-2.7 1-2.7s.5.2.6 1.2c0 .7 0 1.6.5 1.6s.7-1.5.7-2.4c0-2.6-1.2-4.7-3.5-4.6ZM34 29.1c-.3 0-.4-.3-.4-.5 0-1.4 1.5-7.6 2.6-7.6s.3.2.3.5c0 1.1-1.3 7.6-2.5 7.6m4.6-2.7c-.9 1-1.4 1.5-1.8 1.5s-.4-.4-.4-.8c0-.7.5-3.6 1.6-3.6s.7.8.7 1.5v1.4Zm2.1 2.5c-.3 0-.6-.6-.6-1.8.6-1 .9-1.4 1.3-1.4s.3 0 .3.7c0 1.3-.6 2.5-1 2.5m1.8 2.1c-.2 0-.4-.3-.4-1.1 0-1.9 1.2-5.4 1.9-5.4s.3.5.3 1c0 2.1-.9 5.5-1.8 5.5" class="st0"/><path id="lips" d="M88.4 18.2c-.7 0-1.8.8-2.6.8s-.8-1.5-2-1.5-.6 0-.9.3c-2.5 1.3-4.5.8-4.9 1.1 0 0-.2 0-.2.4 0 2.8 2.8 7 7.4 7s5.8-1.1 5.8-3c-.1-1.6-1.6-5.1-2.6-5.1m-2.9 5.4c-2.6 0-4.2-1.5-4.2-2.4s.1-.2.2-.2c.4 0 1.5.6 3 .8 1.7.3 2.6.3 3.1.3s.7 0 .7.3c-.1.5-1.3 1.2-2.8 1.2" class="st0"/><path id="dove" d="M102.4 1.4c-1.8 0-2-.5-3.2-.5s-2.4 1-2.4 2.5.2 1.3.2 2.3-.2 2.4-1.3 2.4-1.4-.7-1.4-1.5c0-1.4.7-2.4.7-3.3 0-1.7-2-2.2-4.2-2.2s-5.4.7-5.4 1.1c0 .6 3.7.2 6.4 3.7-1.7 0-5 .8-5 1.3s6 1.2 6 3.7-1.3 1.8-1.8 1.8c-2 0-3-2.1-3.5-2.1s-.3 0-.3.3.3 1.2.3 2.1c0 2.3-2.5 2.5-2.5 3s.1.2.4.3c1.8.3 3.7.4 5.4.4 6.4 0 11.5-2 11.5-7.6s-1-4.1-1-5.6c-.2-.5.2-1.6 1.1-2.1m-8.9 12.2h-1.3c4.1-.7 6.4-3.1 6.4-6.3.9.3 1.5 1.2 1.5 2.2-.1 1.9-1.8 4.1-6.6 4.1m5.7-9.7c-.5 0-.9-.4-.9-.9s.4-.9.9-.9.9.4.9.9-.4.9-.9.9" class="st0"/><path id="spark" d="M77.5.2c-2.4 0-4.2 1.2-5.2 1.2S70.9 0 70.4 0s-.4.4-.4 1v.2c0 .5 0 1.4-.4 1.4-.9 0-4.3-2.4-4.3-1.6s2.3 3.3 2.3 3.9-2.2 1.2-2.2 1.7c0 .8 2.4.9 2.4 1.9s-2.5 1.8-2.5 2.5 2.5.2 2.5.9-1.8 3.2-1.8 3.9 0 .2.2.2c.7 0 2.8-2.3 3.3-2.3s.7 1.4.8 2.2c0 .4 0 .5.3.5.4 0 1.1-1.6 1.6-1.6s2.5 1.9 5.6 1.9c4.4 0 8.5-3 8.5-8.3.1-5.2-3.7-8.2-8.8-8.2m-6.1 11.4s-.2 0-.2-.3V9.9s-.2-.3-.4-.3H69c0-.3 1.5-1.3 1.5-1.5 0-.4-1.4-1.1-1.4-1.6s0 0 .2 0h1.6c.5 0 .5-2 .9-2s.7 1.9 1.1 1.9 1.3-.5 1.7-.5c0 .2-.9 1.2-.9 1.5s2 .7 2 1-2.1.3-2.1.6.8 1.2.8 1.6c-.3 0-1.4-.5-1.7-.5s-1 1.4-1.3 1.4Zm6.2 3.1c-2.5 0-4.2-1.2-4.2-1.9s.2-.5.5-.5c.8 0 2.5 1.2 3.1 1.2s.3 0 .3-.3c0-.6-.6-1.7-.6-2.2s0-.2.3-.2c1 0 2.4.4 3.2.4s.3 0 .3-.3c0-.8-2.4-2.3-2.4-2.8S81 7 81 6.4s-4-.2-4-.9.8-1.3.8-1.7 0-.2-.4-.2-2.1.7-2.8.7-.8 0-.8-.6c0-.8 1.4-1.7 3.6-1.7 3.6 0 5.7 2.4 5.7 6.4.1 5-3.5 6.3-5.5 6.3" class="st0"/><g id="sun"><path d="M39.6 10.4c1.4 0 5.6 1.9 7.5 1.9s1.1-.4 1.1-.8c0-2.2-5.9-6.1-6-7.7 0-.2 0-.3.2-.4 1-1.1 5.2-1.8 5.2-2.7s-.9-.5-1.3-.5C42.9.2 38 1.4 38 2.6s4.4 4.2 4.4 5.7-.3.5-.7.5c-1.2 0-3.9-1.5-5.2-1.5s-.8.4-.8 1c0 1.7 2.1 5 2.1 6s0 .3-.2.3c-.7 0-3.7-3.6-4.8-3.6s-.4.5-.4 1.3v1.2c0 .8 0 1.3-.4 1.3-.9 0-1.4-2.6-2.3-2.6s-1.1 4.7-2 4.7-.2-5.1-1.2-5.1-2.4 3.4-3.2 3.4-.4-.3-.4-.5c0-1 .6-2.7.6-3.7s0-.8-.6-.8c-1.1 0-3.6 1.8-4.5 1.8s-.3 0-.3-.2c0-.9 4-3.6 4-4.8s-5.5-.4-5.5-1.8 3.9-2.3 3.9-3.5S15.9.2 14.1.2s-3.3.3-3.3.9c0 .9 4.9 1.2 4.9 2S10.6 6 10.6 7.2s7.1 0 7.1 1.2-6.2 6.5-6.2 8.3.3.6.7.6c1.9 0 6.8-3.6 8.1-3.6s.5.6.5 1.1c0 .9-.3 2.4-.3 3.4s.2 1.4.9 1.4c1.3 0 2.6-2.3 3.5-2.3s.5 6.6 2.2 6.6 2.1-7.2 3-7.2 1.7 2.1 2.6 2.1.6-3.6 1.7-3.6 4.9 4.3 6.6 4.3.7-.4.7-.9c0-1.9-2.7-6.2-2.7-7.6 0-.5.2-.6.6-.6" class="st0"/><path d="M41.9 12.9s-.2 0-.2.2c0 1.3 4.6 7.4 5.4 7.4s1.3-1.3 1.3-2.3 0-.6-.2-.8c-.7-1-5.3-4.5-6.3-4.5M15 9.4c0-.3-.6-.4-1.1-.4-.8 0-1.9.2-2.4.6-.4.3-.7 1.3-.7 2s0 .8.5.8c.9 0 3.7-2.3 3.7-3m6.5-4.5c.8 0 2.1-.4 3-.4s1 0 1 .6c0 .9-2 2.5-2 3.2s.2.3.4.3c.7 0 2-1.8 3.1-1.8 1.9 0 .7 4.1 1.7 4.1s.6-4 2.2-4 2.2 2.8 3.1 2.8.4-.2.4-.4c0-.8-1.1-2.3-1.1-3.3s.4-.9 1-.9 2 .5 2.6.5.4 0 .4-.3c0-.9-3.2-1.8-3.2-2.9s1.8-1.1 1.8-1.6-1.1-.4-2.6-.4c-2.4 0-2 1.9-3.9 1.9s-1.4-2-3.8-2-2.8.3-2.8.6 1.7.2 1.7 1.4-3.7 1.6-3.7 2.4.3.2.7.2m22.9-.5c0 .6 2.3 2 3.3 2s.8-.8.8-1.7-.5-1.1-1.4-1.1-2.7.3-2.7.8" class="st0"/></g></g></svg>